<svg width="384" height="90" viewBox="0 0 384 90" fill="none" xmlns="http://www.w3.org/2000/svg">
<path d="M109.046 12.744H103.48V27H101.94V12.744H96.374V11.38H109.046V12.744ZM117.141 27.11C116.041 27.11 115.043 26.89 114.149 26.45C113.254 26.01 112.484 25.416 111.839 24.668C111.193 23.9053 110.695 23.0547 110.343 22.116C109.991 21.1627 109.815 20.1873 109.815 19.19C109.815 18.1487 109.998 17.1587 110.365 16.22C110.731 15.2667 111.245 14.4233 111.905 13.69C112.579 12.942 113.364 12.3553 114.259 11.93C115.153 11.49 116.121 11.27 117.163 11.27C118.263 11.27 119.26 11.4973 120.155 11.952C121.049 12.4067 121.812 13.0153 122.443 13.778C123.088 14.5407 123.587 15.3913 123.939 16.33C124.291 17.2687 124.467 18.2293 124.467 19.212C124.467 20.2533 124.283 21.2507 123.917 22.204C123.55 23.1427 123.037 23.986 122.377 24.734C121.717 25.4673 120.939 26.0467 120.045 26.472C119.15 26.8973 118.182 27.11 117.141 27.11ZM111.355 19.19C111.355 20.0407 111.494 20.862 111.773 21.654C112.051 22.4313 112.447 23.128 112.961 23.744C113.474 24.3453 114.083 24.8293 114.787 25.196C115.505 25.548 116.29 25.724 117.141 25.724C118.035 25.724 118.835 25.5407 119.539 25.174C120.257 24.7927 120.866 24.294 121.365 23.678C121.878 23.0473 122.267 22.3433 122.531 21.566C122.795 20.7887 122.927 19.9967 122.927 19.19C122.927 18.3393 122.787 17.5253 122.509 16.748C122.23 15.9707 121.827 15.274 121.299 14.658C120.785 14.042 120.177 13.558 119.473 13.206C118.769 12.854 117.991 12.678 117.141 12.678C116.261 12.678 115.461 12.8613 114.743 13.228C114.039 13.5947 113.43 14.0933 112.917 14.724C112.418 15.34 112.029 16.0367 111.751 16.814C111.487 17.5913 111.355 18.3833 111.355 19.19ZM127.37 27V11.38H139.162V27H137.622V12.744H128.91V27H127.37ZM147.649 19.08C147.649 18.1267 147.81 17.1953 148.133 16.286C148.47 15.362 148.954 14.526 149.585 13.778C150.215 13.0153 150.993 12.414 151.917 11.974C152.841 11.5193 153.889 11.292 155.063 11.292C156.456 11.292 157.644 11.6147 158.627 12.26C159.624 12.8907 160.357 13.7047 160.827 14.702L159.617 15.45C159.279 14.7607 158.854 14.218 158.341 13.822C157.827 13.4113 157.277 13.118 156.691 12.942C156.119 12.766 155.547 12.678 154.975 12.678C154.036 12.678 153.207 12.8687 152.489 13.25C151.77 13.6167 151.161 14.1153 150.663 14.746C150.179 15.362 149.812 16.0587 149.563 16.836C149.313 17.5987 149.189 18.376 149.189 19.168C149.189 20.0333 149.335 20.862 149.629 21.654C149.922 22.446 150.333 23.15 150.861 23.766C151.389 24.3673 152.005 24.8513 152.709 25.218C153.427 25.57 154.205 25.746 155.041 25.746C155.627 25.746 156.229 25.6433 156.845 25.438C157.461 25.2327 158.033 24.9173 158.561 24.492C159.103 24.0667 159.536 23.5167 159.859 22.842L161.135 23.502C160.812 24.2793 160.313 24.9393 159.639 25.482C158.964 26.0247 158.209 26.4353 157.373 26.714C156.551 26.9927 155.745 27.132 154.953 27.132C153.882 27.132 152.899 26.9047 152.005 26.45C151.11 25.9807 150.333 25.3647 149.673 24.602C149.027 23.8247 148.529 22.9593 148.177 22.006C147.825 21.038 147.649 20.0627 147.649 19.08ZM163.765 27V11.38H175.557V27H174.017V12.744H165.305V27H163.765ZM189.964 25.636V27H179.47V11.38H189.766V12.744H181.01V18.376H188.644V19.674H181.01V25.636H189.964ZM204.778 29.97V27H192.876V11.38H194.416V25.636H202.732V11.38H204.25V25.636H206.142V29.97H204.778ZM209.099 27V11.38H210.617V24.888L220.297 11.38H221.727V27H220.209V13.734L210.639 27H209.099ZM230.566 11.38H231.864L238.354 27H236.726L234.702 22.116H227.684L225.682 27H224.032L230.566 11.38ZM234.35 20.906L231.204 13.184L228.014 20.906H234.35ZM251.153 27V12.744H244.773L244.685 16.044C244.611 18.2 244.457 19.9893 244.223 21.412C243.988 22.8347 243.658 23.9567 243.233 24.778C242.807 25.5847 242.287 26.164 241.671 26.516C241.055 26.8533 240.321 27.022 239.471 27.022V25.658C240.043 25.658 240.549 25.5113 240.989 25.218C241.429 24.9247 241.803 24.4113 242.111 23.678C242.419 22.9447 242.661 21.9327 242.837 20.642C243.027 19.3367 243.152 17.6867 243.211 15.692L243.343 11.38H252.671V27H251.153ZM256.665 27V11.38H258.183V24.888L267.863 11.38H269.293V27H267.775V13.734L258.205 27H256.665ZM272.258 19.08C272.258 18.1267 272.419 17.1953 272.742 16.286C273.079 15.362 273.563 14.526 274.194 13.778C274.825 13.0153 275.602 12.414 276.526 11.974C277.45 11.5193 278.499 11.292 279.672 11.292C281.065 11.292 282.253 11.6147 283.236 12.26C284.233 12.8907 284.967 13.7047 285.436 14.702L284.226 15.45C283.889 14.7607 283.463 14.218 282.95 13.822C282.437 13.4113 281.887 13.118 281.3 12.942C280.728 12.766 280.156 12.678 279.584 12.678C278.645 12.678 277.817 12.8687 277.098 13.25C276.379 13.6167 275.771 14.1153 275.272 14.746C274.788 15.362 274.421 16.0587 274.172 16.836C273.923 17.5987 273.798 18.376 273.798 19.168C273.798 20.0333 273.945 20.862 274.238 21.654C274.531 22.446 274.942 23.15 275.47 23.766C275.998 24.3673 276.614 24.8513 277.318 25.218C278.037 25.57 278.814 25.746 279.65 25.746C280.237 25.746 280.838 25.6433 281.454 25.438C282.07 25.2327 282.642 24.9173 283.17 24.492C283.713 24.0667 284.145 23.5167 284.468 22.842L285.744 23.502C285.421 24.2793 284.923 24.9393 284.248 25.482C283.573 26.0247 282.818 26.4353 281.982 26.714C281.161 26.9927 280.354 27.132 279.562 27.132C278.491 27.132 277.509 26.9047 276.614 26.45C275.719 25.9807 274.942 25.3647 274.282 24.602C273.637 23.8247 273.138 22.9593 272.786 22.006C272.434 21.038 272.258 20.0627 272.258 19.08ZM299.419 12.744H293.853V27H292.313V12.744H286.747V11.38H299.419V12.744ZM301.759 27V11.38H303.299V17.452H307.259C308.388 17.452 309.327 17.65 310.075 18.046C310.823 18.442 311.38 18.9993 311.747 19.718C312.128 20.4367 312.319 21.2727 312.319 22.226C312.319 23.0913 312.135 23.8907 311.769 24.624C311.402 25.3573 310.852 25.9367 310.119 26.362C309.385 26.7873 308.469 27 307.369 27H301.759ZM303.299 25.702H307.171C308.036 25.702 308.733 25.5407 309.261 25.218C309.789 24.8807 310.17 24.448 310.405 23.92C310.654 23.3773 310.779 22.8127 310.779 22.226C310.779 21.61 310.669 21.038 310.449 20.51C310.229 19.982 309.855 19.5567 309.327 19.234C308.799 18.9113 308.073 18.75 307.149 18.75H303.299V25.702ZM315.047 27V11.402H316.565V27H315.047Z" fill="#F6F3E3"/>
<path d="M107.488 56V46.752L103.376 53.936H102.672L98.544 46.752V56H97.424V44.64H98.576L103.008 52.416L107.472 44.64H108.608V56H107.488ZM111.215 56V47.664H112.303V50.608H114.191C115.141 50.608 115.855 50.8533 116.335 51.344C116.826 51.824 117.071 52.4587 117.071 53.248C117.071 53.76 116.965 54.224 116.751 54.64C116.538 55.056 116.223 55.3867 115.807 55.632C115.402 55.8773 114.89 56 114.271 56H111.215ZM112.303 55.136H114.127C114.565 55.136 114.917 55.0507 115.183 54.88C115.45 54.6987 115.647 54.4693 115.775 54.192C115.903 53.904 115.967 53.5947 115.967 53.264C115.967 52.944 115.909 52.6507 115.791 52.384C115.685 52.1067 115.493 51.888 115.215 51.728C114.949 51.5573 114.575 51.472 114.095 51.472H112.303V55.136ZM118.591 56V47.68H119.679V56H118.591ZM126.137 56V47.664H132.841V56H131.753V48.64H127.225V56H126.137ZM138.799 56.16C138.202 56.16 137.647 56.048 137.135 55.824C136.634 55.5893 136.196 55.2747 135.823 54.88C135.46 54.4747 135.178 54.016 134.975 53.504C134.772 52.9813 134.671 52.432 134.671 51.856C134.671 51.2587 134.772 50.704 134.975 50.192C135.178 49.6693 135.466 49.2107 135.839 48.816C136.212 48.4107 136.65 48.096 137.151 47.872C137.663 47.6373 138.218 47.52 138.815 47.52C139.412 47.52 139.962 47.6373 140.463 47.872C140.964 48.096 141.402 48.4107 141.775 48.816C142.148 49.2107 142.436 49.6693 142.639 50.192C142.842 50.704 142.943 51.2587 142.943 51.856C142.943 52.432 142.842 52.9813 142.639 53.504C142.436 54.016 142.148 54.4747 141.775 54.88C141.412 55.2747 140.975 55.5893 140.463 55.824C139.962 56.048 139.407 56.16 138.799 56.16ZM135.775 51.872C135.775 52.4907 135.908 53.056 136.175 53.568C136.452 54.0693 136.82 54.4693 137.279 54.768C137.738 55.056 138.244 55.2 138.799 55.2C139.354 55.2 139.86 55.0507 140.319 54.752C140.778 54.4533 141.146 54.048 141.423 53.536C141.7 53.0133 141.839 52.448 141.839 51.84C141.839 51.2213 141.7 50.656 141.423 50.144C141.146 49.632 140.778 49.2267 140.319 48.928C139.86 48.6293 139.354 48.48 138.799 48.48C138.244 48.48 137.738 48.6347 137.279 48.944C136.831 49.2533 136.468 49.664 136.191 50.176C135.914 50.6773 135.775 51.2427 135.775 51.872ZM143.835 57.936V55.024H143.979C144.224 55.024 144.448 54.9493 144.651 54.8C144.853 54.6507 145.035 54.3893 145.195 54.016C145.355 53.6427 145.483 53.1307 145.579 52.48C145.675 51.8187 145.739 50.9867 145.771 49.984L145.851 47.664H151.275V55.024H152.395V57.936H151.419V56H144.795V57.936H143.835ZM145.627 55.024H150.187V48.64H146.827L146.779 50.08C146.747 51.072 146.677 51.904 146.571 52.576C146.475 53.2373 146.347 53.7653 146.187 54.16C146.037 54.544 145.851 54.832 145.627 55.024ZM157.66 56.16C157.052 56.16 156.492 56.048 155.98 55.824C155.478 55.5893 155.036 55.2693 154.652 54.864C154.278 54.4587 153.985 53.9947 153.772 53.472C153.569 52.9493 153.468 52.3947 153.468 51.808C153.468 51.0187 153.644 50.2987 153.996 49.648C154.348 48.9973 154.838 48.48 155.468 48.096C156.097 47.712 156.822 47.52 157.644 47.52C158.422 47.52 159.11 47.7013 159.708 48.064C160.305 48.416 160.748 48.896 161.036 49.504L159.98 49.84C159.745 49.4133 159.414 49.0827 158.988 48.848C158.572 48.6027 158.108 48.48 157.596 48.48C157.041 48.48 156.534 48.624 156.076 48.912C155.617 49.2 155.249 49.5947 154.972 50.096C154.705 50.5973 154.572 51.168 154.572 51.808C154.572 52.4373 154.71 53.008 154.988 53.52C155.265 54.032 155.633 54.4427 156.092 54.752C156.55 55.0507 157.057 55.2 157.612 55.2C157.974 55.2 158.321 55.136 158.652 55.008C158.993 54.88 159.286 54.7093 159.532 54.496C159.788 54.272 159.958 54.032 160.044 53.776L161.116 54.096C160.966 54.4907 160.716 54.848 160.364 55.168C160.022 55.4773 159.617 55.7227 159.148 55.904C158.689 56.0747 158.193 56.16 157.66 56.16ZM164.905 56V48.64H161.929V47.664H168.969V48.64H165.993V56H164.905ZM174.706 56.16C174.013 56.16 173.389 55.9787 172.834 55.616C172.29 55.2533 171.858 54.8053 171.538 54.272V59.408H170.45V47.664H171.426V49.28C171.757 48.7573 172.199 48.336 172.754 48.016C173.309 47.6853 173.901 47.52 174.53 47.52C175.106 47.52 175.634 47.6427 176.114 47.888C176.594 48.1227 177.01 48.4427 177.362 48.848C177.714 49.2533 177.986 49.7173 178.178 50.24C178.381 50.752 178.482 51.2853 178.482 51.84C178.482 52.6187 178.322 53.3387 178.002 54C177.693 54.6507 177.255 55.1733 176.69 55.568C176.125 55.9627 175.463 56.16 174.706 56.16ZM174.402 55.2C174.861 55.2 175.271 55.1093 175.634 54.928C175.997 54.736 176.306 54.48 176.562 54.16C176.829 53.84 177.031 53.4827 177.17 53.088C177.309 52.6827 177.378 52.2667 177.378 51.84C177.378 51.392 177.298 50.9653 177.138 50.56C176.989 50.1547 176.77 49.7973 176.482 49.488C176.194 49.1787 175.863 48.9333 175.49 48.752C175.117 48.5707 174.711 48.48 174.274 48.48C173.997 48.48 173.709 48.5333 173.41 48.64C173.111 48.7467 172.823 48.9013 172.546 49.104C172.279 49.296 172.055 49.5147 171.874 49.76C171.693 50.0053 171.581 50.2667 171.538 50.544V53.104C171.709 53.4987 171.938 53.856 172.226 54.176C172.514 54.4853 172.845 54.736 173.218 54.928C173.602 55.1093 173.997 55.2 174.402 55.2ZM180.309 56V47.68H181.397V54.528L186.469 47.664H187.445V56H186.357V49.264L181.365 56H180.309ZM189.233 56L192.353 51.712L189.537 47.664H190.769L193.281 51.264H194.369V47.664H195.489V51.264H196.609L199.073 47.664H200.321L197.489 51.712L200.641 56H199.377L196.609 52.224H195.489V56H194.369V52.224H193.281L190.497 56H189.233ZM206.05 56.16C205.453 56.16 204.898 56.048 204.386 55.824C203.874 55.5893 203.431 55.2747 203.058 54.88C202.685 54.4747 202.391 54.0107 202.178 53.488C201.975 52.9653 201.874 52.4053 201.874 51.808C201.874 51.0293 202.05 50.3147 202.402 49.664C202.765 49.0133 203.261 48.496 203.89 48.112C204.519 47.7173 205.234 47.52 206.034 47.52C206.855 47.52 207.57 47.7173 208.178 48.112C208.797 48.5067 209.282 49.0293 209.634 49.68C209.986 50.32 210.162 51.024 210.162 51.792C210.162 51.8773 210.162 51.9627 210.162 52.048C210.162 52.1227 210.157 52.1813 210.146 52.224H203.01C203.063 52.8213 203.229 53.3547 203.506 53.824C203.794 54.2827 204.162 54.6507 204.61 54.928C205.069 55.1947 205.565 55.328 206.098 55.328C206.642 55.328 207.154 55.1893 207.634 54.912C208.125 54.6347 208.466 54.272 208.658 53.824L209.602 54.08C209.431 54.4747 209.17 54.832 208.818 55.152C208.466 55.472 208.05 55.7227 207.57 55.904C207.101 56.0747 206.594 56.16 206.05 56.16ZM202.978 51.44H209.138C209.095 50.832 208.93 50.2987 208.642 49.84C208.365 49.3813 207.997 49.024 207.538 48.768C207.09 48.5013 206.594 48.368 206.05 48.368C205.506 48.368 205.01 48.5013 204.562 48.768C204.114 49.024 203.746 49.3867 203.458 49.856C203.181 50.3147 203.021 50.8427 202.978 51.44ZM211.825 56V47.664H212.945L216.257 53.408L219.585 47.664H220.657V56H219.617V49.296L216.609 54.512H215.905L212.865 49.296V56H211.825ZM227.122 56V47.664H231.282C231.751 47.664 232.146 47.7653 232.466 47.968C232.786 48.16 233.026 48.4107 233.186 48.72C233.356 49.0293 233.442 49.36 233.442 49.712C233.442 50.16 233.335 50.5653 233.122 50.928C232.908 51.28 232.599 51.5467 232.194 51.728C232.674 51.8667 233.063 52.1173 233.362 52.48C233.66 52.8427 233.81 53.28 233.81 53.792C233.81 54.24 233.698 54.6293 233.474 54.96C233.26 55.2907 232.962 55.5467 232.578 55.728C232.204 55.9093 231.772 56 231.282 56H227.122ZM228.162 55.216H231.25C231.527 55.216 231.778 55.1467 232.002 55.008C232.236 54.8587 232.418 54.6667 232.546 54.432C232.684 54.1973 232.754 53.952 232.754 53.696C232.754 53.4187 232.69 53.168 232.562 52.944C232.434 52.7093 232.263 52.5227 232.05 52.384C231.836 52.2453 231.591 52.176 231.314 52.176H228.162V55.216ZM228.162 51.424H230.994C231.271 51.424 231.516 51.3493 231.73 51.2C231.943 51.0507 232.108 50.8587 232.226 50.624C232.343 50.3893 232.402 50.144 232.402 49.888C232.402 49.504 232.274 49.168 232.018 48.88C231.772 48.592 231.452 48.448 231.058 48.448H228.162V51.424ZM235.028 53.6C235.028 53.0773 235.177 52.6293 235.476 52.256C235.775 51.872 236.185 51.5787 236.708 51.376C237.241 51.1627 237.855 51.056 238.548 51.056C238.953 51.056 239.375 51.088 239.812 51.152C240.249 51.216 240.639 51.312 240.98 51.44V50.736C240.98 50.032 240.772 49.472 240.356 49.056C239.94 48.64 239.364 48.432 238.628 48.432C238.18 48.432 237.737 48.5173 237.3 48.688C236.873 48.848 236.425 49.088 235.956 49.408L235.54 48.64C236.084 48.2667 236.617 47.9893 237.14 47.808C237.663 47.616 238.196 47.52 238.74 47.52C239.764 47.52 240.575 47.8133 241.172 48.4C241.769 48.9867 242.068 49.7973 242.068 50.832V54.688C242.068 54.8373 242.1 54.9493 242.164 55.024C242.228 55.088 242.329 55.1253 242.468 55.136V56C242.351 56.0107 242.249 56.0213 242.164 56.032C242.079 56.0427 242.015 56.0427 241.972 56.032C241.705 56.0213 241.503 55.936 241.364 55.776C241.225 55.616 241.151 55.4453 241.14 55.264L241.124 54.656C240.751 55.136 240.265 55.5093 239.668 55.776C239.071 56.032 238.463 56.16 237.844 56.16C237.311 56.16 236.825 56.048 236.388 55.824C235.961 55.5893 235.625 55.28 235.38 54.896C235.145 54.5013 235.028 54.0693 235.028 53.6ZM240.612 54.24C240.729 54.0907 240.82 53.9467 240.884 53.808C240.948 53.6693 240.98 53.5467 240.98 53.44V52.224C240.617 52.0853 240.239 51.9787 239.844 51.904C239.46 51.8293 239.071 51.792 238.676 51.792C237.897 51.792 237.268 51.9467 236.788 52.256C236.308 52.5653 236.068 52.9867 236.068 53.52C236.068 53.8293 236.148 54.1227 236.308 54.4C236.468 54.6667 236.703 54.8907 237.012 55.072C237.321 55.2427 237.684 55.328 238.1 55.328C238.623 55.328 239.108 55.2267 239.556 55.024C240.015 54.8213 240.367 54.56 240.612 54.24ZM248.035 56.16C247.427 56.16 246.867 56.048 246.355 55.824C245.853 55.5893 245.411 55.2693 245.027 54.864C244.653 54.4587 244.36 53.9947 244.147 53.472C243.944 52.9493 243.843 52.3947 243.843 51.808C243.843 51.0187 244.019 50.2987 244.371 49.648C244.723 48.9973 245.213 48.48 245.843 48.096C246.472 47.712 247.197 47.52 248.019 47.52C248.797 47.52 249.485 47.7013 250.083 48.064C250.68 48.416 251.123 48.896 251.411 49.504L250.355 49.84C250.12 49.4133 249.789 49.0827 249.363 48.848C248.947 48.6027 248.483 48.48 247.971 48.48C247.416 48.48 246.909 48.624 246.451 48.912C245.992 49.2 245.624 49.5947 245.347 50.096C245.08 50.5973 244.947 51.168 244.947 51.808C244.947 52.4373 245.085 53.008 245.363 53.52C245.64 54.032 246.008 54.4427 246.467 54.752C246.925 55.0507 247.432 55.2 247.987 55.2C248.349 55.2 248.696 55.136 249.027 55.008C249.368 54.88 249.661 54.7093 249.907 54.496C250.163 54.272 250.333 54.032 250.419 53.776L251.491 54.096C251.341 54.4907 251.091 54.848 250.739 55.168C250.397 55.4773 249.992 55.7227 249.523 55.904C249.064 56.0747 248.568 56.16 248.035 56.16ZM97.184 77V68.664H98.272V72.248H103.04V68.664H104.128V77H103.04V73.224H98.272V77H97.184ZM105.856 74.6C105.856 74.0773 106.005 73.6293 106.304 73.256C106.603 72.872 107.013 72.5787 107.536 72.376C108.069 72.1627 108.683 72.056 109.376 72.056C109.781 72.056 110.203 72.088 110.64 72.152C111.077 72.216 111.467 72.312 111.808 72.44V71.736C111.808 71.032 111.6 70.472 111.184 70.056C110.768 69.64 110.192 69.432 109.456 69.432C109.008 69.432 108.565 69.5173 108.128 69.688C107.701 69.848 107.253 70.088 106.784 70.408L106.368 69.64C106.912 69.2667 107.445 68.9893 107.968 68.808C108.491 68.616 109.024 68.52 109.568 68.52C110.592 68.52 111.403 68.8133 112 69.4C112.597 69.9867 112.896 70.7973 112.896 71.832V75.688C112.896 75.8373 112.928 75.9493 112.992 76.024C113.056 76.088 113.157 76.1253 113.296 76.136V77C113.179 77.0107 113.077 77.0213 112.992 77.032C112.907 77.0427 112.843 77.0427 112.8 77.032C112.533 77.0213 112.331 76.936 112.192 76.776C112.053 76.616 111.979 76.4453 111.968 76.264L111.952 75.656C111.579 76.136 111.093 76.5093 110.496 76.776C109.899 77.032 109.291 77.16 108.672 77.16C108.139 77.16 107.653 77.048 107.216 76.824C106.789 76.5893 106.453 76.28 106.208 75.896C105.973 75.5013 105.856 75.0693 105.856 74.6ZM111.44 75.24C111.557 75.0907 111.648 74.9467 111.712 74.808C111.776 74.6693 111.808 74.5467 111.808 74.44V73.224C111.445 73.0853 111.067 72.9787 110.672 72.904C110.288 72.8293 109.899 72.792 109.504 72.792C108.725 72.792 108.096 72.9467 107.616 73.256C107.136 73.5653 106.896 73.9867 106.896 74.52C106.896 74.8293 106.976 75.1227 107.136 75.4C107.296 75.6667 107.531 75.8907 107.84 76.072C108.149 76.2427 108.512 76.328 108.928 76.328C109.451 76.328 109.936 76.2267 110.384 76.024C110.843 75.8213 111.195 75.56 111.44 75.24ZM119.309 77V68.664H123.469C123.938 68.664 124.333 68.7653 124.653 68.968C124.973 69.16 125.213 69.4107 125.373 69.72C125.544 70.0293 125.629 70.36 125.629 70.712C125.629 71.16 125.522 71.5653 125.309 71.928C125.096 72.28 124.786 72.5467 124.381 72.728C124.861 72.8667 125.25 73.1173 125.549 73.48C125.848 73.8427 125.997 74.28 125.997 74.792C125.997 75.24 125.885 75.6293 125.661 75.96C125.448 76.2907 125.149 76.5467 124.765 76.728C124.392 76.9093 123.96 77 123.469 77H119.309ZM120.349 76.216H123.437C123.714 76.216 123.965 76.1467 124.189 76.008C124.424 75.8587 124.605 75.6667 124.733 75.432C124.872 75.1973 124.941 74.952 124.941 74.696C124.941 74.4187 124.877 74.168 124.749 73.944C124.621 73.7093 124.45 73.5227 124.237 73.384C124.024 73.2453 123.778 73.176 123.501 73.176H120.349V76.216ZM120.349 72.424H123.181C123.458 72.424 123.704 72.3493 123.917 72.2C124.13 72.0507 124.296 71.8587 124.413 71.624C124.53 71.3893 124.589 71.144 124.589 70.888C124.589 70.504 124.461 70.168 124.205 69.88C123.96 69.592 123.64 69.448 123.245 69.448H120.349V72.424ZM127.872 77V68.664H128.96V71.608H130.848C131.797 71.608 132.512 71.8533 132.992 72.344C133.482 72.824 133.728 73.4587 133.728 74.248C133.728 74.76 133.621 75.224 133.408 75.64C133.194 76.056 132.88 76.3867 132.464 76.632C132.058 76.8773 131.546 77 130.928 77H127.872ZM128.96 76.136H130.784C131.221 76.136 131.573 76.0507 131.84 75.88C132.106 75.6987 132.304 75.4693 132.432 75.192C132.56 74.904 132.624 74.5947 132.624 74.264C132.624 73.944 132.565 73.6507 132.448 73.384C132.341 73.1067 132.149 72.888 131.872 72.728C131.605 72.5573 131.232 72.472 130.752 72.472H128.96V76.136ZM135.248 77V68.68H136.336V77H135.248ZM142.347 77.16C141.739 77.16 141.179 77.048 140.667 76.824C140.166 76.5893 139.723 76.2693 139.339 75.864C138.966 75.4587 138.673 74.9947 138.459 74.472C138.257 73.9493 138.155 73.3947 138.155 72.808C138.155 72.0187 138.331 71.2987 138.683 70.648C139.035 69.9973 139.526 69.48 140.155 69.096C140.785 68.712 141.51 68.52 142.331 68.52C143.11 68.52 143.798 68.7013 144.395 69.064C144.993 69.416 145.435 69.896 145.723 70.504L144.667 70.84C144.433 70.4133 144.102 70.0827 143.675 69.848C143.259 69.6027 142.795 69.48 142.283 69.48C141.729 69.48 141.222 69.624 140.763 69.912C140.305 70.2 139.937 70.5947 139.659 71.096C139.393 71.5973 139.259 72.168 139.259 72.808C139.259 73.4373 139.398 74.008 139.675 74.52C139.953 75.032 140.321 75.4427 140.779 75.752C141.238 76.0507 141.745 76.2 142.299 76.2C142.662 76.2 143.009 76.136 143.339 76.008C143.681 75.88 143.974 75.7093 144.219 75.496C144.475 75.272 144.646 75.032 144.731 74.776L145.803 75.096C145.654 75.4907 145.403 75.848 145.051 76.168C144.71 76.4773 144.305 76.7227 143.835 76.904C143.377 77.0747 142.881 77.16 142.347 77.16ZM147.497 77V68.664H148.585V76.04H152.153V68.664H153.257V76.04H156.809V68.664H157.897V77H147.497ZM163.878 77.16C163.281 77.16 162.726 77.048 162.214 76.824C161.702 76.5893 161.259 76.2747 160.886 75.88C160.513 75.4747 160.219 75.0107 160.006 74.488C159.803 73.9653 159.702 73.4053 159.702 72.808C159.702 72.0293 159.878 71.3147 160.23 70.664C160.593 70.0133 161.089 69.496 161.718 69.112C162.347 68.7173 163.062 68.52 163.862 68.52C164.683 68.52 165.398 68.7173 166.006 69.112C166.625 69.5067 167.11 70.0293 167.462 70.68C167.814 71.32 167.99 72.024 167.99 72.792C167.99 72.8773 167.99 72.9627 167.99 73.048C167.99 73.1227 167.985 73.1813 167.974 73.224H160.838C160.891 73.8213 161.057 74.3547 161.334 74.824C161.622 75.2827 161.99 75.6507 162.438 75.928C162.897 76.1947 163.393 76.328 163.926 76.328C164.47 76.328 164.982 76.1893 165.462 75.912C165.953 75.6347 166.294 75.272 166.486 74.824L167.43 75.08C167.259 75.4747 166.998 75.832 166.646 76.152C166.294 76.472 165.878 76.7227 165.398 76.904C164.929 77.0747 164.422 77.16 163.878 77.16ZM160.806 72.44H166.966C166.923 71.832 166.758 71.2987 166.47 70.84C166.193 70.3813 165.825 70.024 165.366 69.768C164.918 69.5013 164.422 69.368 163.878 69.368C163.334 69.368 162.838 69.5013 162.39 69.768C161.942 70.024 161.574 70.3867 161.286 70.856C161.009 71.3147 160.849 71.8427 160.806 72.44ZM169.653 77V68.664H170.773L174.085 74.408L177.413 68.664H178.485V77H177.445V70.296L174.437 75.512H173.733L170.693 70.296V77H169.653ZM185.44 80.488C185.259 80.488 185.072 80.456 184.88 80.392C184.699 80.3387 184.512 80.2587 184.32 80.152L184.72 79.384C184.837 79.448 184.944 79.5013 185.04 79.544C185.147 79.5867 185.259 79.608 185.376 79.608C185.653 79.608 185.915 79.4693 186.16 79.192C186.405 78.9147 186.64 78.5093 186.864 77.976L187.28 76.936L183.568 68.664H184.72L187.776 75.88L190.592 68.664H191.68L187.712 78.312C187.499 78.8133 187.275 79.224 187.04 79.544C186.805 79.864 186.555 80.0987 186.288 80.248C186.021 80.408 185.739 80.488 185.44 80.488ZM197.456 77.16C196.763 77.16 196.139 76.9787 195.584 76.616C195.04 76.2533 194.608 75.8053 194.288 75.272V80.408H193.2V68.664H194.176V70.28C194.507 69.7573 194.949 69.336 195.504 69.016C196.059 68.6853 196.651 68.52 197.28 68.52C197.856 68.52 198.384 68.6427 198.864 68.888C199.344 69.1227 199.76 69.4427 200.112 69.848C200.464 70.2533 200.736 70.7173 200.928 71.24C201.131 71.752 201.232 72.2853 201.232 72.84C201.232 73.6187 201.072 74.3387 200.752 75C200.443 75.6507 200.005 76.1733 199.44 76.568C198.875 76.9627 198.213 77.16 197.456 77.16ZM197.152 76.2C197.611 76.2 198.021 76.1093 198.384 75.928C198.747 75.736 199.056 75.48 199.312 75.16C199.579 74.84 199.781 74.4827 199.92 74.088C200.059 73.6827 200.128 73.2667 200.128 72.84C200.128 72.392 200.048 71.9653 199.888 71.56C199.739 71.1547 199.52 70.7973 199.232 70.488C198.944 70.1787 198.613 69.9333 198.24 69.752C197.867 69.5707 197.461 69.48 197.024 69.48C196.747 69.48 196.459 69.5333 196.16 69.64C195.861 69.7467 195.573 69.9013 195.296 70.104C195.029 70.296 194.805 70.5147 194.624 70.76C194.443 71.0053 194.331 71.2667 194.288 71.544V74.104C194.459 74.4987 194.688 74.856 194.976 75.176C195.264 75.4853 195.595 75.736 195.968 75.928C196.352 76.1093 196.747 76.2 197.152 76.2ZM206.627 77.16C206.03 77.16 205.475 77.048 204.963 76.824C204.462 76.5893 204.024 76.2747 203.651 75.88C203.288 75.4747 203.006 75.016 202.803 74.504C202.6 73.9813 202.499 73.432 202.499 72.856C202.499 72.2587 202.6 71.704 202.803 71.192C203.006 70.6693 203.294 70.2107 203.667 69.816C204.04 69.4107 204.478 69.096 204.979 68.872C205.491 68.6373 206.046 68.52 206.643 68.52C207.24 68.52 207.79 68.6373 208.291 68.872C208.792 69.096 209.23 69.4107 209.603 69.816C209.976 70.2107 210.264 70.6693 210.467 71.192C210.67 71.704 210.771 72.2587 210.771 72.856C210.771 73.432 210.67 73.9813 210.467 74.504C210.264 75.016 209.976 75.4747 209.603 75.88C209.24 76.2747 208.803 76.5893 208.291 76.824C207.79 77.048 207.235 77.16 206.627 77.16ZM203.603 72.872C203.603 73.4907 203.736 74.056 204.003 74.568C204.28 75.0693 204.648 75.4693 205.107 75.768C205.566 76.056 206.072 76.2 206.627 76.2C207.182 76.2 207.688 76.0507 208.147 75.752C208.606 75.4533 208.974 75.048 209.251 74.536C209.528 74.0133 209.667 73.448 209.667 72.84C209.667 72.2213 209.528 71.656 209.251 71.144C208.974 70.632 208.606 70.2267 208.147 69.928C207.688 69.6293 207.182 69.48 206.627 69.48C206.072 69.48 205.566 69.6347 205.107 69.944C204.659 70.2533 204.296 70.664 204.019 71.176C203.742 71.6773 203.603 72.2427 203.603 72.872ZM212.575 77V68.664H216.735C217.204 68.664 217.599 68.7653 217.919 68.968C218.239 69.16 218.479 69.4107 218.639 69.72C218.809 70.0293 218.895 70.36 218.895 70.712C218.895 71.16 218.788 71.5653 218.575 71.928C218.361 72.28 218.052 72.5467 217.647 72.728C218.127 72.8667 218.516 73.1173 218.815 73.48C219.113 73.8427 219.263 74.28 219.263 74.792C219.263 75.24 219.151 75.6293 218.927 75.96C218.713 76.2907 218.415 76.5467 218.031 76.728C217.657 76.9093 217.225 77 216.735 77H212.575ZM213.615 76.216H216.703C216.98 76.216 217.231 76.1467 217.455 76.008C217.689 75.8587 217.871 75.6667 217.999 75.432C218.137 75.1973 218.207 74.952 218.207 74.696C218.207 74.4187 218.143 74.168 218.015 73.944C217.887 73.7093 217.716 73.5227 217.503 73.384C217.289 73.2453 217.044 73.176 216.767 73.176H213.615V76.216ZM213.615 72.424H216.447C216.724 72.424 216.969 72.3493 217.183 72.2C217.396 72.0507 217.561 71.8587 217.679 71.624C217.796 71.3893 217.855 71.144 217.855 70.888C217.855 70.504 217.727 70.168 217.471 69.88C217.225 69.592 216.905 69.448 216.511 69.448H213.615V72.424ZM221.137 77V68.664H222.225V72.248H226.993V68.664H228.081V77H226.993V73.224H222.225V77H221.137ZM234.081 77.16C233.484 77.16 232.929 77.048 232.417 76.824C231.905 76.5893 231.463 76.2747 231.089 75.88C230.716 75.4747 230.423 75.0107 230.209 74.488C230.007 73.9653 229.905 73.4053 229.905 72.808C229.905 72.0293 230.081 71.3147 230.433 70.664C230.796 70.0133 231.292 69.496 231.921 69.112C232.551 68.7173 233.265 68.52 234.065 68.52C234.887 68.52 235.601 68.7173 236.209 69.112C236.828 69.5067 237.313 70.0293 237.665 70.68C238.017 71.32 238.193 72.024 238.193 72.792C238.193 72.8773 238.193 72.9627 238.193 73.048C238.193 73.1227 238.188 73.1813 238.177 73.224H231.041C231.095 73.8213 231.26 74.3547 231.537 74.824C231.825 75.2827 232.193 75.6507 232.641 75.928C233.1 76.1947 233.596 76.328 234.129 76.328C234.673 76.328 235.185 76.1893 235.665 75.912C236.156 75.6347 236.497 75.272 236.689 74.824L237.633 75.08C237.463 75.4747 237.201 75.832 236.849 76.152C236.497 76.472 236.081 76.7227 235.601 76.904C235.132 77.0747 234.625 77.16 234.081 77.16ZM231.009 72.44H237.169C237.127 71.832 236.961 71.2987 236.673 70.84C236.396 70.3813 236.028 70.024 235.569 69.768C235.121 69.5013 234.625 69.368 234.081 69.368C233.537 69.368 233.041 69.5013 232.593 69.768C232.145 70.024 231.777 70.3867 231.489 70.856C231.212 71.3147 231.052 71.8427 231.009 72.44Z" fill="#BFBDB2"/>
<g clip-path="url(#clip0_26_2)">
<path d="M49.5965 18.7992L48.7125 19.5806C48.7125 19.5806 44.1971 28.2733 40.8838 34.7446C41.6126 36.2072 42.2687 37.5295 42.7796 38.5763L49.5965 18.7992Z" fill="#F6F3E3"/>
<path d="M37.4406 41.594C34.6533 46.9985 28.778 49.2625 28.3522 49.4227C26.3813 49.876 24.6783 51.4863 24.0121 53.6702C23.5463 55.1828 23.634 56.7656 24.245 58.1305C24.8786 59.5404 25.9906 60.5547 27.3805 60.978C27.8288 61.1182 28.2946 61.1858 28.7655 61.1908C31.2097 61.2109 33.4712 59.4027 34.2676 56.8082C34.2676 56.7981 34.2676 56.7856 34.2726 56.7756C34.2826 56.8006 34.2851 56.8157 34.2851 56.8157L39.6846 41.1032L39.6921 41.0982L38.0742 40.2817C37.7136 41.0055 37.4832 41.4788 37.4406 41.594ZM32.6072 56.3023C32.0337 58.1705 30.4609 59.4678 28.783 59.4553C28.48 59.4553 28.1794 59.4027 27.8939 59.3176C26.9898 59.0421 26.2611 58.3684 25.8353 57.4242C25.3946 56.4375 25.3395 55.2855 25.6775 54.1761C26.2511 52.3028 27.8238 51.008 29.5017 51.018C29.8048 51.023 30.1003 51.0706 30.3908 51.1583C31.2899 51.4338 32.0237 52.1074 32.4494 53.0516C32.8877 54.0358 32.9428 55.1878 32.6072 56.3023Z" fill="#F6F3E3"/>
<path d="M52.1936 49.6532C51.5625 49.3927 46.0403 46.971 43.4633 41.6141C43.1703 40.705 32.4014 19.3877 32.4014 19.3877L31.5449 18.6589L38.432 39.6381L41.2369 41.0556L46.143 56.5978C46.168 56.7005 46.1906 56.8032 46.2156 56.9084C46.9444 59.5605 49.1858 61.4263 51.6526 61.4463C52.1009 61.4488 52.5467 61.3937 52.9799 61.271C54.3799 60.8878 55.5244 59.9086 56.1906 58.5162C56.8417 57.1663 56.9719 55.5835 56.5512 54.0584C55.9301 51.8019 54.2146 50.1215 52.1936 49.6532ZM40.0373 39.3677C39.5314 39.3652 39.1282 38.9519 39.1282 38.4461C39.1332 37.9377 39.5439 37.5345 40.0523 37.5395C40.5582 37.542 40.9664 37.9552 40.9614 38.4611C40.9564 38.9695 40.5432 39.3752 40.0373 39.3677ZM54.6303 57.7599C54.1795 58.6915 53.4307 59.3426 52.5216 59.5931C52.2411 59.6657 51.9531 59.7033 51.6651 59.7008C49.9647 59.6882 48.4119 58.3509 47.8885 56.4426C47.5805 55.3231 47.6656 54.1711 48.139 53.1994C48.5898 52.2678 49.3386 51.6166 50.2527 51.3662C50.5256 51.291 50.8187 51.251 51.1016 51.2535C52.8046 51.271 54.3548 52.6083 54.8833 54.5167C55.1888 55.6386 55.0986 56.7882 54.6303 57.7599Z" fill="#F6F3E3"/>
<path d="M77.4957 41.6166C77.5233 41.0957 77.5784 40.5823 77.5784 40.0514C77.5784 39.5806 77.5258 39.1248 77.5057 38.6565C77.6911 37.7524 78.1494 36.8283 78.5851 35.9718C79.0159 35.0176 79.4667 34.1611 79.5643 33.6777C79.9575 32.0749 79.0259 31.1108 77.9991 30.4872C77.2678 30.0339 76.4965 29.7383 76.0181 29.4053C75.7477 28.4862 75.4171 27.5871 75.0765 26.7005C74.9788 25.7414 75.0715 24.692 75.1516 23.7328C75.2793 22.676 75.4421 21.7093 75.392 21.2134C74.9312 18.401 71.966 18.689 70.5736 18.3409C70.0176 17.5645 69.4516 16.7982 68.8406 16.0669C67.9265 14.3389 67.8463 11.6367 67.3455 10.8328C66.0883 8.23572 63.3009 9.56554 61.8909 9.6557C61.1095 9.09722 60.3081 8.57631 59.4892 8.08295C58.1193 6.64042 57.0725 4.2813 56.3938 3.57506C55.2643 2.38047 53.9195 2.68851 52.8601 3.14932C52.0837 3.4849 51.4176 3.97827 50.8666 4.2262C49.9024 3.9382 48.9257 3.68275 47.9315 3.47238C46.206 2.59585 44.5255 0.659959 43.669 0.291814C42.2065 -0.376856 41.0444 0.219187 40.1929 1.00556C39.5718 1.62665 39.0985 2.32036 38.6628 2.72858C37.6735 2.76865 36.6868 2.82625 35.7176 2.94145C33.7767 2.72107 31.5102 1.34866 30.5736 1.32362C28.9583 1.12076 28.0417 2.02485 27.5183 3.1418C27.1301 3.91816 26.9022 4.72207 26.6117 5.23547C25.7101 5.59109 24.831 5.98177 23.962 6.4C22.0111 6.76064 19.4692 6.34741 18.51 6.53274C16.8871 6.82825 16.4113 8.12051 16.226 9.25751C16.0782 10.0965 16.1308 10.9404 16.0306 11.534C15.2718 12.1751 14.533 12.8363 13.8293 13.535C12.1664 14.5317 9.55181 14.8348 8.8055 15.3882C6.3462 16.8834 7.87137 19.5255 8.08925 20.9329C7.59338 21.7594 7.13258 22.6034 6.69932 23.4724C6.10578 24.1961 5.22924 24.7947 4.4604 25.3607C3.61893 25.9943 2.81752 26.5327 2.49696 26.9109C1.36999 28.128 1.79073 29.4428 2.36173 30.4646C2.79498 31.2109 3.30588 31.832 3.58136 32.3529C3.38101 33.3096 3.24327 34.2863 3.11555 35.268C2.32666 37.0837 0.668763 38.9645 0.248027 39.8561C-0.666073 42.5307 2.02113 43.6978 3.0905 44.667C3.21572 45.6737 3.35346 46.6855 3.55882 47.6672C3.46616 49.5931 2.30162 51.9071 2.36173 52.8263C2.27157 55.7013 5.30938 55.8766 6.61417 56.4526C7.03741 57.3266 7.49571 58.1731 7.98407 59.0021C8.26706 59.8936 8.29711 60.9555 8.3447 61.9172C8.41482 62.9665 8.42985 63.9332 8.57009 64.404C8.9758 66.0143 10.3006 66.375 11.4702 66.4601C12.3367 66.5127 13.1356 66.4175 13.7266 66.4726C14.4128 67.1588 15.1466 67.805 15.8854 68.4361C17.0049 70.0564 17.6084 72.5783 18.1694 73.3647C19.1436 74.6545 20.4459 74.6795 21.5728 74.389C22.4193 74.136 23.1731 73.7479 23.7492 73.6076C24.6232 74.0359 25.5097 74.4391 26.4188 74.8047C27.1827 75.3281 27.8664 76.1095 28.4774 76.8658C29.1661 77.6772 29.7822 78.391 30.1879 78.684C30.8466 79.1573 31.4927 79.3076 32.0887 79.2575C32.6923 79.1623 33.2458 78.8718 33.7391 78.5287C34.4479 78.0404 35.0289 77.4443 35.5223 77.1313C36.4864 77.254 37.4581 77.3166 38.4474 77.3692C40.3257 77.9953 42.3442 79.5455 43.2683 79.8335C44.8336 80.387 45.8654 79.4353 46.5741 78.5287C47.0875 77.85 47.4506 77.1238 47.8138 76.6605C48.7955 76.4551 49.7497 76.1921 50.7013 75.9142C52.6598 75.8741 55.069 76.7281 56.0281 76.6955C57.636 76.5828 58.3722 75.5009 58.7429 74.4015C58.9983 73.555 59.081 72.7085 59.2763 72.1451C60.0802 71.6617 60.8841 71.1583 61.653 70.6199C62.5295 70.2342 63.5814 70.0664 64.5831 69.9713C65.64 69.8285 66.5791 69.7108 67.0374 69.533C68.5851 68.9745 68.9032 67.6898 68.8556 66.4751C68.8306 65.6086 68.6552 64.7922 68.6728 64.2087C69.2838 63.4924 69.8498 62.7361 70.4008 61.9723C70.7414 61.6868 71.1045 61.4188 71.5203 61.1909C71.9786 60.8979 72.4694 60.6374 72.9478 60.4045C73.9019 59.9337 74.801 59.543 75.1892 59.23C77.2929 57.3066 75.4496 54.9875 74.9738 53.6302C75.3319 52.7236 75.67 51.8095 75.958 50.8728C76.9122 49.1774 79.106 47.6572 79.4892 46.8057C80.9643 44.3439 78.3773 42.7461 77.4957 41.6166ZM40.1754 73.3271C21.8283 73.3271 6.89967 58.401 6.89967 40.0514C6.89967 21.7043 21.8258 6.77566 40.1754 6.77566C58.525 6.77566 73.4536 21.7068 73.4536 40.0539C73.4536 58.401 58.5275 73.3271 40.1754 73.3271Z" fill="#F6F3E3"/>
<path d="M40.4006 8.57629C23.0703 8.57629 8.97559 22.6735 8.97559 40.0038C8.97559 57.3291 23.0703 71.4288 40.4006 71.4288C57.7309 71.4288 71.8281 57.3291 71.8281 40.0038C71.8281 22.6735 57.7309 8.57629 40.4006 8.57629ZM40.4006 69.4153C24.1822 69.4153 10.9866 56.2197 10.9866 40.0063C10.9866 23.7854 24.1847 10.5898 40.4006 10.5898C56.6215 10.5898 69.8146 23.7879 69.8146 40.0063C69.8146 56.2197 56.619 69.4153 40.4006 69.4153Z" fill="#F6F3E3"/>
</g>
<defs>
<clipPath id="clip0_26_2">
<rect width="80" height="80" fill="white"/>
</clipPath>
</defs>
</svg>
