<svg width="384" height="90" viewBox="0 0 384 90" fill="none" xmlns="http://www.w3.org/2000/svg">
<path d="M97.958 27V11.38H106.824V12.744H99.498V27H97.958ZM114.142 11.38H115.44L121.93 27H120.302L118.278 22.116H111.26L109.258 27H107.608L114.142 11.38ZM117.926 20.906L114.78 13.184L111.59 20.906H117.926ZM124.169 27V11.38H130.637C131.312 11.38 131.928 11.5193 132.485 11.798C133.057 12.0767 133.548 12.458 133.959 12.942C134.37 13.4113 134.692 13.9393 134.927 14.526C135.162 15.098 135.279 15.6847 135.279 16.286C135.279 17.1367 135.088 17.9433 134.707 18.706C134.34 19.454 133.82 20.0627 133.145 20.532C132.47 21.0013 131.678 21.236 130.769 21.236H125.709V27H124.169ZM125.709 19.872H130.703C131.319 19.872 131.854 19.7033 132.309 19.366C132.764 19.0287 133.116 18.5887 133.365 18.046C133.614 17.5033 133.739 16.9167 133.739 16.286C133.739 15.6407 133.592 15.0467 133.299 14.504C133.006 13.9613 132.617 13.536 132.133 13.228C131.664 12.9053 131.143 12.744 130.571 12.744H125.709V19.872ZM141.62 11.38H142.918L149.408 27H147.78L145.756 22.116H138.738L136.736 27H135.086L141.62 11.38ZM145.404 20.906L142.258 13.184L139.068 20.906H145.404ZM163.967 11.38V27H162.449V19.696H153.187V27H151.647V11.38H153.187V18.332H162.449V11.38H163.967ZM178.978 12.744H173.412V27H171.872V12.744H166.306V11.38H178.978V12.744ZM181.405 27V11.38H182.923V24.888L192.603 11.38H194.033V27H192.515V13.734L182.945 27H181.405ZM197.504 27L201.684 20.378C200.555 20.114 199.682 19.5787 199.066 18.772C198.465 17.9653 198.164 17.0047 198.164 15.89C198.164 15.054 198.37 14.2987 198.78 13.624C199.206 12.9347 199.8 12.392 200.562 11.996C201.325 11.5853 202.234 11.38 203.29 11.38H208.13V27H206.612V20.576H203.818C203.73 20.576 203.635 20.576 203.532 20.576C203.444 20.576 203.356 20.576 203.268 20.576L199.264 27H197.504ZM203.356 19.234H206.612V12.722H203.444C202.726 12.722 202.08 12.854 201.508 13.118C200.936 13.382 200.496 13.7487 200.188 14.218C199.88 14.6873 199.726 15.2447 199.726 15.89C199.726 16.5353 199.866 17.1073 200.144 17.606C200.423 18.1047 200.826 18.5007 201.354 18.794C201.897 19.0873 202.564 19.234 203.356 19.234ZM217.647 27V11.38H219.187V18.332H221.541L226.909 11.38H228.691L222.817 18.948L229.065 27H227.173L221.585 19.74H219.187V27H217.647ZM236.431 11.38H237.729L244.219 27H242.591L240.567 22.116H233.549L231.547 27H229.897L236.431 11.38ZM240.215 20.906L237.069 13.184L233.879 20.906H240.215ZM253.753 27V20.268C253.43 20.4147 253.056 20.554 252.631 20.686C252.205 20.818 251.743 20.928 251.245 21.016C250.746 21.0893 250.211 21.126 249.639 21.126C247.908 21.126 246.632 20.752 245.811 20.004C244.989 19.2413 244.579 18.0387 244.579 16.396V11.38H246.075V16.22C246.075 17.4373 246.368 18.3247 246.955 18.882C247.556 19.4393 248.524 19.718 249.859 19.718C250.607 19.718 251.333 19.6373 252.037 19.476C252.755 19.3147 253.327 19.1167 253.753 18.882V11.38H255.249V27H253.753ZM269.671 25.636V27H259.177V11.38H269.473V12.744H260.717V18.376H268.351V19.674H260.717V25.636H269.671ZM271.248 19.08C271.248 18.1267 271.41 17.1953 271.732 16.286C272.07 15.362 272.554 14.526 273.184 13.778C273.815 13.0153 274.592 12.414 275.516 11.974C276.44 11.5193 277.489 11.292 278.662 11.292C280.056 11.292 281.244 11.6147 282.226 12.26C283.224 12.8907 283.957 13.7047 284.426 14.702L283.216 15.45C282.879 14.7607 282.454 14.218 281.94 13.822C281.427 13.4113 280.877 13.118 280.29 12.942C279.718 12.766 279.146 12.678 278.574 12.678C277.636 12.678 276.807 12.8687 276.088 13.25C275.37 13.6167 274.761 14.1153 274.262 14.746C273.778 15.362 273.412 16.0587 273.162 16.836C272.913 17.5987 272.788 18.376 272.788 19.168C272.788 20.0333 272.935 20.862 273.228 21.654C273.522 22.446 273.932 23.15 274.46 23.766C274.988 24.3673 275.604 24.8513 276.308 25.218C277.027 25.57 277.804 25.746 278.64 25.746C279.227 25.746 279.828 25.6433 280.444 25.438C281.06 25.2327 281.632 24.9173 282.16 24.492C282.703 24.0667 283.136 23.5167 283.458 22.842L284.734 23.502C284.412 24.2793 283.913 24.9393 283.238 25.482C282.564 26.0247 281.808 26.4353 280.972 26.714C280.151 26.9927 279.344 27.132 278.552 27.132C277.482 27.132 276.499 26.9047 275.604 26.45C274.71 25.9807 273.932 25.3647 273.272 24.602C272.627 23.8247 272.128 22.9593 271.776 22.006C271.424 21.038 271.248 20.0627 271.248 19.08ZM298.409 12.744H292.843V27H291.303V12.744H285.737V11.38H298.409V12.744ZM312.497 22.974C312.497 23.7513 312.299 24.448 311.903 25.064C311.507 25.6653 310.972 26.142 310.297 26.494C309.637 26.8313 308.911 27 308.119 27H300.749V11.38H308.273C309.006 11.38 309.637 11.578 310.165 11.974C310.708 12.3553 311.118 12.854 311.397 13.47C311.69 14.0713 311.837 14.702 311.837 15.362C311.837 16.1393 311.639 16.858 311.243 17.518C310.847 18.178 310.297 18.6693 309.593 18.992C310.488 19.256 311.192 19.7473 311.705 20.466C312.233 21.1847 312.497 22.0207 312.497 22.974ZM310.957 22.71C310.957 22.182 310.84 21.698 310.605 21.258C310.37 20.8033 310.048 20.4367 309.637 20.158C309.241 19.8793 308.786 19.74 308.273 19.74H302.289V25.658H308.119C308.647 25.658 309.124 25.5187 309.549 25.24C309.974 24.9613 310.312 24.602 310.561 24.162C310.825 23.7073 310.957 23.2233 310.957 22.71ZM302.289 12.722V18.486H307.657C308.17 18.486 308.625 18.354 309.021 18.09C309.417 17.8113 309.732 17.452 309.967 17.012C310.202 16.572 310.319 16.1027 310.319 15.604C310.319 15.076 310.209 14.5993 309.989 14.174C309.769 13.734 309.468 13.382 309.087 13.118C308.706 12.854 308.273 12.722 307.789 12.722H302.289ZM319.919 11.38H321.217L327.707 27H326.079L324.055 22.116H317.037L315.035 27H313.385L319.919 11.38ZM323.703 20.906L320.557 13.184L317.367 20.906H323.703Z" fill="#F6F3E3"/>
<path d="M107.488 56V46.752L103.376 53.936H102.672L98.544 46.752V56H97.424V44.64H98.576L103.008 52.416L107.472 44.64H108.608V56H107.488ZM111.215 56V47.664H112.303V50.608H114.191C115.141 50.608 115.855 50.8533 116.335 51.344C116.826 51.824 117.071 52.4587 117.071 53.248C117.071 53.76 116.965 54.224 116.751 54.64C116.538 55.056 116.223 55.3867 115.807 55.632C115.402 55.8773 114.89 56 114.271 56H111.215ZM112.303 55.136H114.127C114.565 55.136 114.917 55.0507 115.183 54.88C115.45 54.6987 115.647 54.4693 115.775 54.192C115.903 53.904 115.967 53.5947 115.967 53.264C115.967 52.944 115.909 52.6507 115.791 52.384C115.685 52.1067 115.493 51.888 115.215 51.728C114.949 51.5573 114.575 51.472 114.095 51.472H112.303V55.136ZM118.591 56V47.68H119.679V56H118.591ZM126.137 56V47.68H127.225V54.528L132.297 47.664H133.273V56H132.185V49.264L127.193 56H126.137ZM139.269 56.16C138.661 56.16 138.101 56.048 137.589 55.824C137.088 55.5893 136.645 55.2693 136.261 54.864C135.888 54.4587 135.594 53.9947 135.381 53.472C135.178 52.9493 135.077 52.3947 135.077 51.808C135.077 51.0187 135.253 50.2987 135.605 49.648C135.957 48.9973 136.448 48.48 137.077 48.096C137.706 47.712 138.432 47.52 139.253 47.52C140.032 47.52 140.72 47.7013 141.317 48.064C141.914 48.416 142.357 48.896 142.645 49.504L141.589 49.84C141.354 49.4133 141.024 49.0827 140.597 48.848C140.181 48.6027 139.717 48.48 139.205 48.48C138.65 48.48 138.144 48.624 137.685 48.912C137.226 49.2 136.858 49.5947 136.581 50.096C136.314 50.5973 136.181 51.168 136.181 51.808C136.181 52.4373 136.32 53.008 136.597 53.52C136.874 54.032 137.242 54.4427 137.701 54.752C138.16 55.0507 138.666 55.2 139.221 55.2C139.584 55.2 139.93 55.136 140.261 55.008C140.602 54.88 140.896 54.7093 141.141 54.496C141.397 54.272 141.568 54.032 141.653 53.776L142.725 54.096C142.576 54.4907 142.325 54.848 141.973 55.168C141.632 55.4773 141.226 55.7227 140.757 55.904C140.298 56.0747 139.802 56.16 139.269 56.16ZM144.418 56V47.664H151.122V56H150.034V48.64H145.506V56H144.418ZM157.08 56.16C156.483 56.16 155.928 56.048 155.416 55.824C154.915 55.5893 154.477 55.2747 154.104 54.88C153.741 54.4747 153.459 54.016 153.256 53.504C153.053 52.9813 152.952 52.432 152.952 51.856C152.952 51.2587 153.053 50.704 153.256 50.192C153.459 49.6693 153.747 49.2107 154.12 48.816C154.493 48.4107 154.931 48.096 155.432 47.872C155.944 47.6373 156.499 47.52 157.096 47.52C157.693 47.52 158.243 47.6373 158.744 47.872C159.245 48.096 159.683 48.4107 160.056 48.816C160.429 49.2107 160.717 49.6693 160.92 50.192C161.123 50.704 161.224 51.2587 161.224 51.856C161.224 52.432 161.123 52.9813 160.92 53.504C160.717 54.016 160.429 54.4747 160.056 54.88C159.693 55.2747 159.256 55.5893 158.744 55.824C158.243 56.048 157.688 56.16 157.08 56.16ZM154.056 51.872C154.056 52.4907 154.189 53.056 154.456 53.568C154.733 54.0693 155.101 54.4693 155.56 54.768C156.019 55.056 156.525 55.2 157.08 55.2C157.635 55.2 158.141 55.0507 158.6 54.752C159.059 54.4533 159.427 54.048 159.704 53.536C159.981 53.0133 160.12 52.448 160.12 51.84C160.12 51.2213 159.981 50.656 159.704 50.144C159.427 49.632 159.059 49.2267 158.6 48.928C158.141 48.6293 157.635 48.48 157.08 48.48C156.525 48.48 156.019 48.6347 155.56 48.944C155.112 49.2533 154.749 49.664 154.472 50.176C154.195 50.6773 154.056 51.2427 154.056 51.872ZM162.244 56.048V55.056C162.532 55.056 162.788 54.9813 163.012 54.832C163.236 54.672 163.433 54.4053 163.604 54.032C163.785 53.6587 163.929 53.1467 164.036 52.496C164.142 51.8347 164.212 50.9973 164.244 49.984L164.34 47.664H169.748V56H168.66V48.64H165.3L165.268 50.08C165.225 51.232 165.134 52.1973 164.996 52.976C164.857 53.744 164.66 54.352 164.404 54.8C164.158 55.248 163.854 55.568 163.492 55.76C163.129 55.952 162.713 56.048 162.244 56.048ZM172.137 56V47.664H173.225V50.608H175.385C176.334 50.608 177.049 50.8533 177.529 51.344C178.02 51.824 178.265 52.4587 178.265 53.248C178.265 53.76 178.158 54.224 177.945 54.64C177.732 55.056 177.417 55.3867 177.001 55.632C176.596 55.8773 176.084 56 175.465 56H172.137ZM173.225 55.136H175.321C175.758 55.136 176.11 55.0507 176.377 54.88C176.644 54.6987 176.841 54.4693 176.969 54.192C177.097 53.904 177.161 53.5947 177.161 53.264C177.161 52.944 177.102 52.6507 176.985 52.384C176.878 52.1067 176.686 51.888 176.409 51.728C176.142 51.5573 175.769 51.472 175.289 51.472H173.225V55.136ZM182.382 56.096C181.614 56.096 180.958 55.952 180.414 55.664C179.87 55.3653 179.454 54.9493 179.166 54.416L180.062 54.016C180.264 54.3893 180.558 54.6827 180.942 54.896C181.326 55.0987 181.79 55.2 182.334 55.2C182.984 55.2 183.502 55.0507 183.886 54.752C184.28 54.4533 184.478 54.0533 184.478 53.552C184.478 53.0933 184.323 52.7253 184.014 52.448C183.704 52.1707 183.278 52.0267 182.734 52.016H181.886V51.264H182.798C183.032 51.264 183.246 51.2 183.438 51.072C183.63 50.944 183.779 50.7733 183.886 50.56C183.992 50.3467 184.046 50.1067 184.046 49.84C184.046 49.424 183.896 49.088 183.598 48.832C183.31 48.576 182.883 48.448 182.318 48.448C181.848 48.448 181.454 48.544 181.134 48.736C180.824 48.9173 180.574 49.1893 180.382 49.552L179.55 49.104C179.795 48.6133 180.158 48.2293 180.638 47.952C181.128 47.6747 181.699 47.536 182.35 47.536C182.883 47.536 183.347 47.6267 183.742 47.808C184.147 47.9787 184.462 48.2293 184.686 48.56C184.92 48.88 185.038 49.2693 185.038 49.728C185.038 50.1227 184.942 50.4907 184.75 50.832C184.558 51.1627 184.291 51.4133 183.95 51.584C184.44 51.7333 184.819 51.9947 185.086 52.368C185.363 52.7413 185.502 53.1787 185.502 53.68C185.502 54.1813 185.368 54.6133 185.102 54.976C184.835 55.3387 184.467 55.616 183.998 55.808C183.528 56 182.99 56.096 182.382 56.096ZM188.237 59.488C188.056 59.488 187.869 59.456 187.677 59.392C187.496 59.3387 187.309 59.2587 187.117 59.152L187.517 58.384C187.634 58.448 187.741 58.5013 187.837 58.544C187.944 58.5867 188.056 58.608 188.173 58.608C188.45 58.608 188.712 58.4693 188.957 58.192C189.202 57.9147 189.437 57.5093 189.661 56.976L190.077 55.936L186.365 47.664H187.517L190.573 54.88L193.389 47.664H194.477L190.509 57.312C190.296 57.8133 190.072 58.224 189.837 58.544C189.602 58.864 189.352 59.0987 189.085 59.248C188.818 59.408 188.536 59.488 188.237 59.488ZM199.3 56.16C198.703 56.16 198.148 56.048 197.636 55.824C197.124 55.5893 196.681 55.2747 196.308 54.88C195.935 54.4747 195.641 54.0107 195.428 53.488C195.225 52.9653 195.124 52.4053 195.124 51.808C195.124 51.0293 195.3 50.3147 195.652 49.664C196.015 49.0133 196.511 48.496 197.14 48.112C197.769 47.7173 198.484 47.52 199.284 47.52C200.105 47.52 200.82 47.7173 201.428 48.112C202.047 48.5067 202.532 49.0293 202.884 49.68C203.236 50.32 203.412 51.024 203.412 51.792C203.412 51.8773 203.412 51.9627 203.412 52.048C203.412 52.1227 203.407 52.1813 203.396 52.224H196.26C196.313 52.8213 196.479 53.3547 196.756 53.824C197.044 54.2827 197.412 54.6507 197.86 54.928C198.319 55.1947 198.815 55.328 199.348 55.328C199.892 55.328 200.404 55.1893 200.884 54.912C201.375 54.6347 201.716 54.272 201.908 53.824L202.852 54.08C202.681 54.4747 202.42 54.832 202.068 55.152C201.716 55.472 201.3 55.7227 200.82 55.904C200.351 56.0747 199.844 56.16 199.3 56.16ZM196.228 51.44H202.388C202.345 50.832 202.18 50.2987 201.892 49.84C201.615 49.3813 201.247 49.024 200.788 48.768C200.34 48.5013 199.844 48.368 199.3 48.368C198.756 48.368 198.26 48.5013 197.812 48.768C197.364 49.024 196.996 49.3867 196.708 49.856C196.431 50.3147 196.271 50.8427 196.228 51.44ZM205.075 56V47.664H206.195L209.507 53.408L212.835 47.664H213.907V56H212.867V49.296L209.859 54.512H209.155L206.115 49.296V56H205.075ZM222.468 56V48.64H219.492V47.664H226.532V48.64H223.556V56H222.468ZM231.565 56.16C230.967 56.16 230.413 56.048 229.901 55.824C229.399 55.5893 228.962 55.2747 228.589 54.88C228.226 54.4747 227.943 54.016 227.741 53.504C227.538 52.9813 227.437 52.432 227.437 51.856C227.437 51.2587 227.538 50.704 227.741 50.192C227.943 49.6693 228.231 49.2107 228.605 48.816C228.978 48.4107 229.415 48.096 229.917 47.872C230.429 47.6373 230.983 47.52 231.581 47.52C232.178 47.52 232.727 47.6373 233.229 47.872C233.73 48.096 234.167 48.4107 234.541 48.816C234.914 49.2107 235.202 49.6693 235.405 50.192C235.607 50.704 235.709 51.2587 235.709 51.856C235.709 52.432 235.607 52.9813 235.405 53.504C235.202 54.016 234.914 54.4747 234.541 54.88C234.178 55.2747 233.741 55.5893 233.229 55.824C232.727 56.048 232.173 56.16 231.565 56.16ZM228.541 51.872C228.541 52.4907 228.674 53.056 228.941 53.568C229.218 54.0693 229.586 54.4693 230.045 54.768C230.503 55.056 231.01 55.2 231.565 55.2C232.119 55.2 232.626 55.0507 233.085 54.752C233.543 54.4533 233.911 54.048 234.189 53.536C234.466 53.0133 234.605 52.448 234.605 51.84C234.605 51.2213 234.466 50.656 234.189 50.144C233.911 49.632 233.543 49.2267 233.085 48.928C232.626 48.6293 232.119 48.48 231.565 48.48C231.01 48.48 230.503 48.6347 230.045 48.944C229.597 49.2533 229.234 49.664 228.957 50.176C228.679 50.6773 228.541 51.2427 228.541 51.872ZM236.728 56.048V55.056C237.016 55.056 237.272 54.9813 237.496 54.832C237.72 54.672 237.917 54.4053 238.088 54.032C238.269 53.6587 238.413 53.1467 238.52 52.496C238.627 51.8347 238.696 50.9973 238.728 49.984L238.824 47.664H244.232V56H243.144V48.64H239.784L239.752 50.08C239.709 51.232 239.619 52.1973 239.48 52.976C239.341 53.744 239.144 54.352 238.888 54.8C238.643 55.248 238.339 55.568 237.976 55.76C237.613 55.952 237.197 56.048 236.728 56.048ZM246.622 56V47.664H247.71V50.608H249.87C250.819 50.608 251.534 50.8533 252.014 51.344C252.504 51.824 252.75 52.4587 252.75 53.248C252.75 53.76 252.643 54.224 252.43 54.64C252.216 55.056 251.902 55.3867 251.486 55.632C251.08 55.8773 250.568 56 249.95 56H246.622ZM247.71 55.136H249.806C250.243 55.136 250.595 55.0507 250.862 54.88C251.128 54.6987 251.326 54.4693 251.454 54.192C251.582 53.904 251.646 53.5947 251.646 53.264C251.646 52.944 251.587 52.6507 251.47 52.384C251.363 52.1067 251.171 51.888 250.894 51.728C250.627 51.5573 250.254 51.472 249.774 51.472H247.71V55.136ZM254.434 56V47.664H255.522V51.232H256.77L259.57 47.664H260.818L257.634 51.712L261.218 56H259.938L256.77 52.24H255.522V56H254.434ZM265.877 56.16C265.28 56.16 264.725 56.048 264.213 55.824C263.712 55.5893 263.274 55.2747 262.901 54.88C262.538 54.4747 262.256 54.016 262.053 53.504C261.85 52.9813 261.749 52.432 261.749 51.856C261.749 51.2587 261.85 50.704 262.053 50.192C262.256 49.6693 262.544 49.2107 262.917 48.816C263.29 48.4107 263.728 48.096 264.229 47.872C264.741 47.6373 265.296 47.52 265.893 47.52C266.49 47.52 267.04 47.6373 267.541 47.872C268.042 48.096 268.48 48.4107 268.853 48.816C269.226 49.2107 269.514 49.6693 269.717 50.192C269.92 50.704 270.021 51.2587 270.021 51.856C270.021 52.432 269.92 52.9813 269.717 53.504C269.514 54.016 269.226 54.4747 268.853 54.88C268.49 55.2747 268.053 55.5893 267.541 55.824C267.04 56.048 266.485 56.16 265.877 56.16ZM262.853 51.872C262.853 52.4907 262.986 53.056 263.253 53.568C263.53 54.0693 263.898 54.4693 264.357 54.768C264.816 55.056 265.322 55.2 265.877 55.2C266.432 55.2 266.938 55.0507 267.397 54.752C267.856 54.4533 268.224 54.048 268.501 53.536C268.778 53.0133 268.917 52.448 268.917 51.84C268.917 51.2213 268.778 50.656 268.501 50.144C268.224 49.632 267.856 49.2267 267.397 48.928C266.938 48.6293 266.432 48.48 265.877 48.48C265.322 48.48 264.816 48.6347 264.357 48.944C263.909 49.2533 263.546 49.664 263.269 50.176C262.992 50.6773 262.853 51.2427 262.853 51.872ZM97.184 77V68.664H103.888V77H102.8V69.64H98.272V77H97.184ZM110.55 77.16C109.856 77.16 109.232 76.9787 108.678 76.616C108.134 76.2533 107.702 75.8053 107.382 75.272V80.408H106.294V68.664H107.27V70.28C107.6 69.7573 108.043 69.336 108.598 69.016C109.152 68.6853 109.744 68.52 110.374 68.52C110.95 68.52 111.478 68.6427 111.958 68.888C112.438 69.1227 112.854 69.4427 113.206 69.848C113.558 70.2533 113.83 70.7173 114.022 71.24C114.224 71.752 114.326 72.2853 114.326 72.84C114.326 73.6187 114.166 74.3387 113.846 75C113.536 75.6507 113.099 76.1733 112.534 76.568C111.968 76.9627 111.307 77.16 110.55 77.16ZM110.246 76.2C110.704 76.2 111.115 76.1093 111.478 75.928C111.84 75.736 112.15 75.48 112.406 75.16C112.672 74.84 112.875 74.4827 113.014 74.088C113.152 73.6827 113.222 73.2667 113.222 72.84C113.222 72.392 113.142 71.9653 112.982 71.56C112.832 71.1547 112.614 70.7973 112.326 70.488C112.038 70.1787 111.707 69.9333 111.334 69.752C110.96 69.5707 110.555 69.48 110.118 69.48C109.84 69.48 109.552 69.5333 109.254 69.64C108.955 69.7467 108.667 69.9013 108.39 70.104C108.123 70.296 107.899 70.5147 107.718 70.76C107.536 71.0053 107.424 71.2667 107.382 71.544V74.104C107.552 74.4987 107.782 74.856 108.07 75.176C108.358 75.4853 108.688 75.736 109.062 75.928C109.446 76.1093 109.84 76.2 110.246 76.2ZM119.721 77.16C119.123 77.16 118.569 77.048 118.057 76.824C117.555 76.5893 117.118 76.2747 116.745 75.88C116.382 75.4747 116.099 75.016 115.897 74.504C115.694 73.9813 115.593 73.432 115.593 72.856C115.593 72.2587 115.694 71.704 115.897 71.192C116.099 70.6693 116.387 70.2107 116.761 69.816C117.134 69.4107 117.571 69.096 118.073 68.872C118.585 68.6373 119.139 68.52 119.737 68.52C120.334 68.52 120.883 68.6373 121.385 68.872C121.886 69.096 122.323 69.4107 122.697 69.816C123.07 70.2107 123.358 70.6693 123.561 71.192C123.763 71.704 123.865 72.2587 123.865 72.856C123.865 73.432 123.763 73.9813 123.561 74.504C123.358 75.016 123.07 75.4747 122.697 75.88C122.334 76.2747 121.897 76.5893 121.385 76.824C120.883 77.048 120.329 77.16 119.721 77.16ZM116.697 72.872C116.697 73.4907 116.83 74.056 117.097 74.568C117.374 75.0693 117.742 75.4693 118.201 75.768C118.659 76.056 119.166 76.2 119.721 76.2C120.275 76.2 120.782 76.0507 121.241 75.752C121.699 75.4533 122.067 75.048 122.345 74.536C122.622 74.0133 122.761 73.448 122.761 72.84C122.761 72.2213 122.622 71.656 122.345 71.144C122.067 70.632 121.699 70.2267 121.241 69.928C120.782 69.6293 120.275 69.48 119.721 69.48C119.166 69.48 118.659 69.6347 118.201 69.944C117.753 70.2533 117.39 70.664 117.113 71.176C116.835 71.6773 116.697 72.2427 116.697 72.872ZM129.524 80.408V77H129.156C128.335 77 127.62 76.808 127.012 76.424C126.404 76.04 125.935 75.5387 125.604 74.92C125.274 74.2907 125.108 73.6027 125.108 72.856C125.108 72.0987 125.274 71.4053 125.604 70.776C125.946 70.1467 126.42 69.64 127.028 69.256C127.636 68.872 128.346 68.68 129.156 68.68H129.524V65.32H130.612V68.68H130.98C131.791 68.68 132.5 68.872 133.108 69.256C133.716 69.64 134.186 70.1467 134.516 70.776C134.858 71.4053 135.028 72.0987 135.028 72.856C135.028 73.6027 134.863 74.2907 134.532 74.92C134.202 75.5387 133.732 76.04 133.124 76.424C132.516 76.808 131.802 77 130.98 77H130.612V80.408H129.524ZM129.156 76.088H129.556V69.592H129.156C128.58 69.592 128.068 69.7413 127.62 70.04C127.172 70.328 126.82 70.7227 126.564 71.224C126.308 71.7147 126.18 72.264 126.18 72.872C126.18 73.4693 126.303 74.0133 126.548 74.504C126.804 74.9947 127.156 75.384 127.604 75.672C128.052 75.9493 128.57 76.088 129.156 76.088ZM130.564 76.088H130.98C131.567 76.088 132.084 75.9493 132.532 75.672C132.98 75.384 133.327 74.9947 133.572 74.504C133.828 74.0133 133.956 73.4693 133.956 72.872C133.956 72.264 133.828 71.7147 133.572 71.224C133.316 70.7227 132.964 70.328 132.516 70.04C132.079 69.7413 131.567 69.592 130.98 69.592H130.564V76.088ZM140.456 77.16C139.859 77.16 139.304 77.048 138.792 76.824C138.28 76.5893 137.838 76.2747 137.464 75.88C137.091 75.4747 136.798 75.0107 136.584 74.488C136.382 73.9653 136.28 73.4053 136.28 72.808C136.28 72.0293 136.456 71.3147 136.808 70.664C137.171 70.0133 137.667 69.496 138.296 69.112C138.926 68.7173 139.64 68.52 140.44 68.52C141.262 68.52 141.976 68.7173 142.584 69.112C143.203 69.5067 143.688 70.0293 144.04 70.68C144.392 71.32 144.568 72.024 144.568 72.792C144.568 72.8773 144.568 72.9627 144.568 73.048C144.568 73.1227 144.563 73.1813 144.552 73.224H137.416C137.47 73.8213 137.635 74.3547 137.912 74.824C138.2 75.2827 138.568 75.6507 139.016 75.928C139.475 76.1947 139.971 76.328 140.504 76.328C141.048 76.328 141.56 76.1893 142.04 75.912C142.531 75.6347 142.872 75.272 143.064 74.824L144.008 75.08C143.838 75.4747 143.576 75.832 143.224 76.152C142.872 76.472 142.456 76.7227 141.976 76.904C141.507 77.0747 141 77.16 140.456 77.16ZM137.384 72.44H143.544C143.502 71.832 143.336 71.2987 143.048 70.84C142.771 70.3813 142.403 70.024 141.944 69.768C141.496 69.5013 141 69.368 140.456 69.368C139.912 69.368 139.416 69.5013 138.968 69.768C138.52 70.024 138.152 70.3867 137.864 70.856C137.587 71.3147 137.427 71.8427 137.384 72.44ZM149.863 77.16C149.255 77.16 148.695 77.048 148.183 76.824C147.682 76.5893 147.239 76.2693 146.855 75.864C146.482 75.4587 146.188 74.9947 145.975 74.472C145.772 73.9493 145.671 73.3947 145.671 72.808C145.671 72.0187 145.847 71.2987 146.199 70.648C146.551 69.9973 147.042 69.48 147.671 69.096C148.3 68.712 149.026 68.52 149.847 68.52C150.626 68.52 151.314 68.7013 151.911 69.064C152.508 69.416 152.951 69.896 153.239 70.504L152.183 70.84C151.948 70.4133 151.618 70.0827 151.191 69.848C150.775 69.6027 150.311 69.48 149.799 69.48C149.244 69.48 148.738 69.624 148.279 69.912C147.82 70.2 147.452 70.5947 147.175 71.096C146.908 71.5973 146.775 72.168 146.775 72.808C146.775 73.4373 146.914 74.008 147.191 74.52C147.468 75.032 147.836 75.4427 148.295 75.752C148.754 76.0507 149.26 76.2 149.815 76.2C150.178 76.2 150.524 76.136 150.855 76.008C151.196 75.88 151.49 75.7093 151.735 75.496C151.991 75.272 152.162 75.032 152.247 74.776L153.319 75.096C153.17 75.4907 152.919 75.848 152.567 76.168C152.226 76.4773 151.82 76.7227 151.351 76.904C150.892 77.0747 150.396 77.16 149.863 77.16ZM158.566 77.16C157.958 77.16 157.398 77.048 156.886 76.824C156.385 76.5893 155.942 76.2693 155.558 75.864C155.185 75.4587 154.891 74.9947 154.678 74.472C154.475 73.9493 154.374 73.3947 154.374 72.808C154.374 72.0187 154.55 71.2987 154.902 70.648C155.254 69.9973 155.745 69.48 156.374 69.096C157.003 68.712 157.729 68.52 158.55 68.52C159.329 68.52 160.017 68.7013 160.614 69.064C161.211 69.416 161.654 69.896 161.942 70.504L160.886 70.84C160.651 70.4133 160.321 70.0827 159.894 69.848C159.478 69.6027 159.014 69.48 158.502 69.48C157.947 69.48 157.441 69.624 156.982 69.912C156.523 70.2 156.155 70.5947 155.878 71.096C155.611 71.5973 155.478 72.168 155.478 72.808C155.478 73.4373 155.617 74.008 155.894 74.52C156.171 75.032 156.539 75.4427 156.998 75.752C157.457 76.0507 157.963 76.2 158.518 76.2C158.881 76.2 159.227 76.136 159.558 76.008C159.899 75.88 160.193 75.7093 160.438 75.496C160.694 75.272 160.865 75.032 160.95 74.776L162.022 75.096C161.873 75.4907 161.622 75.848 161.27 76.168C160.929 76.4773 160.523 76.7227 160.054 76.904C159.595 77.0747 159.099 77.16 158.566 77.16ZM163.715 77V68.68H164.803V75.528L169.875 68.664H170.851V77H169.763V70.264L164.771 77H163.715ZM176.783 77.16C176.186 77.16 175.631 77.048 175.119 76.824C174.618 76.5893 174.181 76.2747 173.807 75.88C173.445 75.4747 173.162 75.016 172.959 74.504C172.757 73.9813 172.655 73.432 172.655 72.856C172.655 72.2587 172.757 71.704 172.959 71.192C173.162 70.6693 173.45 70.2107 173.823 69.816C174.197 69.4107 174.634 69.096 175.135 68.872C175.647 68.6373 176.202 68.52 176.799 68.52C177.397 68.52 177.946 68.6373 178.447 68.872C178.949 69.096 179.386 69.4107 179.759 69.816C180.133 70.2107 180.421 70.6693 180.623 71.192C180.826 71.704 180.927 72.2587 180.927 72.856C180.927 73.432 180.826 73.9813 180.623 74.504C180.421 75.016 180.133 75.4747 179.759 75.88C179.397 76.2747 178.959 76.5893 178.447 76.824C177.946 77.048 177.391 77.16 176.783 77.16ZM173.759 72.872C173.759 73.4907 173.893 74.056 174.159 74.568C174.437 75.0693 174.805 75.4693 175.263 75.768C175.722 76.056 176.229 76.2 176.783 76.2C177.338 76.2 177.845 76.0507 178.303 75.752C178.762 75.4533 179.13 75.048 179.407 74.536C179.685 74.0133 179.823 73.448 179.823 72.84C179.823 72.2213 179.685 71.656 179.407 71.144C179.13 70.632 178.762 70.2267 178.303 69.928C177.845 69.6293 177.338 69.48 176.783 69.48C176.229 69.48 175.722 69.6347 175.263 69.944C174.815 70.2533 174.453 70.664 174.175 71.176C173.898 71.6773 173.759 72.2427 173.759 72.872ZM182.731 77V68.664H183.819V72.248H188.587V68.664H189.675V77H188.587V73.224H183.819V77H182.731ZM191.403 74.6C191.403 74.0773 191.552 73.6293 191.851 73.256C192.15 72.872 192.56 72.5787 193.083 72.376C193.616 72.1627 194.23 72.056 194.923 72.056C195.328 72.056 195.75 72.088 196.187 72.152C196.624 72.216 197.014 72.312 197.355 72.44V71.736C197.355 71.032 197.147 70.472 196.731 70.056C196.315 69.64 195.739 69.432 195.003 69.432C194.555 69.432 194.112 69.5173 193.675 69.688C193.248 69.848 192.8 70.088 192.331 70.408L191.915 69.64C192.459 69.2667 192.992 68.9893 193.515 68.808C194.038 68.616 194.571 68.52 195.115 68.52C196.139 68.52 196.95 68.8133 197.547 69.4C198.144 69.9867 198.443 70.7973 198.443 71.832V75.688C198.443 75.8373 198.475 75.9493 198.539 76.024C198.603 76.088 198.704 76.1253 198.843 76.136V77C198.726 77.0107 198.624 77.0213 198.539 77.032C198.454 77.0427 198.39 77.0427 198.347 77.032C198.08 77.0213 197.878 76.936 197.739 76.776C197.6 76.616 197.526 76.4453 197.515 76.264L197.499 75.656C197.126 76.136 196.64 76.5093 196.043 76.776C195.446 77.032 194.838 77.16 194.219 77.16C193.686 77.16 193.2 77.048 192.763 76.824C192.336 76.5893 192 76.28 191.755 75.896C191.52 75.5013 191.403 75.0693 191.403 74.6ZM196.987 75.24C197.104 75.0907 197.195 74.9467 197.259 74.808C197.323 74.6693 197.355 74.5467 197.355 74.44V73.224C196.992 73.0853 196.614 72.9787 196.219 72.904C195.835 72.8293 195.446 72.792 195.051 72.792C194.272 72.792 193.643 72.9467 193.163 73.256C192.683 73.5653 192.443 73.9867 192.443 74.52C192.443 74.8293 192.523 75.1227 192.683 75.4C192.843 75.6667 193.078 75.8907 193.387 76.072C193.696 76.2427 194.059 76.328 194.475 76.328C194.998 76.328 195.483 76.2267 195.931 76.024C196.39 75.8213 196.742 75.56 196.987 75.24ZM199.994 77.048V76.056C200.282 76.056 200.538 75.9813 200.762 75.832C200.986 75.672 201.183 75.4053 201.354 75.032C201.535 74.6587 201.679 74.1467 201.786 73.496C201.892 72.8347 201.962 71.9973 201.994 70.984L202.09 68.664H207.498V77H206.41V69.64H203.05L203.018 71.08C202.975 72.232 202.884 73.1973 202.746 73.976C202.607 74.744 202.41 75.352 202.154 75.8C201.908 76.248 201.604 76.568 201.242 76.76C200.879 76.952 200.463 77.048 199.994 77.048ZM209.887 77V68.664H210.975V71.608H213.135C214.084 71.608 214.799 71.8533 215.279 72.344C215.77 72.824 216.015 73.4587 216.015 74.248C216.015 74.76 215.908 75.224 215.695 75.64C215.482 76.056 215.167 76.3867 214.751 76.632C214.346 76.8773 213.834 77 213.215 77H209.887ZM210.975 76.136H213.071C213.508 76.136 213.86 76.0507 214.127 75.88C214.394 75.6987 214.591 75.4693 214.719 75.192C214.847 74.904 214.911 74.5947 214.911 74.264C214.911 73.944 214.852 73.6507 214.735 73.384C214.628 73.1067 214.436 72.888 214.159 72.728C213.892 72.5573 213.519 72.472 213.039 72.472H210.975V76.136ZM217.7 77V68.664H218.788V72.248H223.556V68.664H224.644V77H223.556V73.224H218.788V77H217.7ZM227.028 77V68.664H228.116V71.608H230.004C230.953 71.608 231.668 71.8533 232.148 72.344C232.638 72.824 232.884 73.4587 232.884 74.248C232.884 74.76 232.777 75.224 232.564 75.64C232.35 76.056 232.036 76.3867 231.62 76.632C231.214 76.8773 230.702 77 230.084 77H227.028ZM228.116 76.136H229.94C230.377 76.136 230.729 76.0507 230.996 75.88C231.262 75.6987 231.46 75.4693 231.588 75.192C231.716 74.904 231.78 74.5947 231.78 74.264C231.78 73.944 231.721 73.6507 231.604 73.384C231.497 73.1067 231.305 72.888 231.028 72.728C230.761 72.5573 230.388 72.472 229.908 72.472H228.116V76.136ZM234.404 77V68.68H235.492V77H234.404ZM241.488 77.16C240.89 77.16 240.336 77.048 239.824 76.824C239.312 76.5893 238.869 76.2747 238.496 75.88C238.122 75.4747 237.829 75.0107 237.616 74.488C237.413 73.9653 237.312 73.4053 237.312 72.808C237.312 72.0293 237.488 71.3147 237.84 70.664C238.202 70.0133 238.698 69.496 239.328 69.112C239.957 68.7173 240.672 68.52 241.472 68.52C242.293 68.52 243.008 68.7173 243.616 69.112C244.234 69.5067 244.72 70.0293 245.072 70.68C245.424 71.32 245.6 72.024 245.6 72.792C245.6 72.8773 245.6 72.9627 245.6 73.048C245.6 73.1227 245.594 73.1813 245.584 73.224H238.448C238.501 73.8213 238.666 74.3547 238.944 74.824C239.232 75.2827 239.6 75.6507 240.048 75.928C240.506 76.1947 241.002 76.328 241.536 76.328C242.08 76.328 242.592 76.1893 243.072 75.912C243.562 75.6347 243.904 75.272 244.096 74.824L245.04 75.08C244.869 75.4747 244.608 75.832 244.256 76.152C243.904 76.472 243.488 76.7227 243.008 76.904C242.538 77.0747 242.032 77.16 241.488 77.16ZM238.416 72.44H244.576C244.533 71.832 244.368 71.2987 244.08 70.84C243.802 70.3813 243.434 70.024 242.976 69.768C242.528 69.5013 242.032 69.368 241.488 69.368C240.944 69.368 240.448 69.5013 240 69.768C239.552 70.024 239.184 70.3867 238.896 70.856C238.618 71.3147 238.458 71.8427 238.416 72.44ZM254.972 77.16C254.364 77.16 253.804 77.048 253.292 76.824C252.791 76.5893 252.348 76.2693 251.964 75.864C251.591 75.4587 251.298 74.9947 251.084 74.472C250.882 73.9493 250.78 73.3947 250.78 72.808C250.78 72.0187 250.956 71.2987 251.308 70.648C251.66 69.9973 252.151 69.48 252.78 69.096C253.41 68.712 254.135 68.52 254.956 68.52C255.735 68.52 256.423 68.7013 257.02 69.064C257.618 69.416 258.06 69.896 258.348 70.504L257.292 70.84C257.058 70.4133 256.727 70.0827 256.3 69.848C255.884 69.6027 255.42 69.48 254.908 69.48C254.354 69.48 253.847 69.624 253.388 69.912C252.93 70.2 252.562 70.5947 252.284 71.096C252.018 71.5973 251.884 72.168 251.884 72.808C251.884 73.4373 252.023 74.008 252.3 74.52C252.578 75.032 252.946 75.4427 253.404 75.752C253.863 76.0507 254.37 76.2 254.924 76.2C255.287 76.2 255.634 76.136 255.964 76.008C256.306 75.88 256.599 75.7093 256.844 75.496C257.1 75.272 257.271 75.032 257.356 74.776L258.428 75.096C258.279 75.4907 258.028 75.848 257.676 76.168C257.335 76.4773 256.93 76.7227 256.46 76.904C256.002 77.0747 255.506 77.16 254.972 77.16ZM264.394 77.16C263.7 77.16 263.076 76.9787 262.522 76.616C261.978 76.2533 261.546 75.8053 261.226 75.272V80.408H260.138V68.664H261.114V70.28C261.444 69.7573 261.887 69.336 262.442 69.016C262.996 68.6853 263.588 68.52 264.218 68.52C264.794 68.52 265.322 68.6427 265.802 68.888C266.282 69.1227 266.698 69.4427 267.05 69.848C267.402 70.2533 267.674 70.7173 267.866 71.24C268.068 71.752 268.17 72.2853 268.17 72.84C268.17 73.6187 268.01 74.3387 267.69 75C267.38 75.6507 266.943 76.1733 266.378 76.568C265.812 76.9627 265.151 77.16 264.394 77.16ZM264.09 76.2C264.548 76.2 264.959 76.1093 265.322 75.928C265.684 75.736 265.994 75.48 266.25 75.16C266.516 74.84 266.719 74.4827 266.858 74.088C266.996 73.6827 267.066 73.2667 267.066 72.84C267.066 72.392 266.986 71.9653 266.826 71.56C266.676 71.1547 266.458 70.7973 266.17 70.488C265.882 70.1787 265.551 69.9333 265.178 69.752C264.804 69.5707 264.399 69.48 263.962 69.48C263.684 69.48 263.396 69.5333 263.098 69.64C262.799 69.7467 262.511 69.9013 262.234 70.104C261.967 70.296 261.743 70.5147 261.562 70.76C261.38 71.0053 261.268 71.2667 261.226 71.544V74.104C261.396 74.4987 261.626 74.856 261.914 75.176C262.202 75.4853 262.532 75.736 262.906 75.928C263.29 76.1093 263.684 76.2 264.09 76.2ZM273.613 77.16C273.015 77.16 272.461 77.048 271.949 76.824C271.437 76.5893 270.994 76.2747 270.621 75.88C270.247 75.4747 269.954 75.0107 269.741 74.488C269.538 73.9653 269.437 73.4053 269.437 72.808C269.437 72.0293 269.613 71.3147 269.965 70.664C270.327 70.0133 270.823 69.496 271.453 69.112C272.082 68.7173 272.797 68.52 273.597 68.52C274.418 68.52 275.133 68.7173 275.741 69.112C276.359 69.5067 276.845 70.0293 277.197 70.68C277.549 71.32 277.725 72.024 277.725 72.792C277.725 72.8773 277.725 72.9627 277.725 73.048C277.725 73.1227 277.719 73.1813 277.709 73.224H270.573C270.626 73.8213 270.791 74.3547 271.069 74.824C271.357 75.2827 271.725 75.6507 272.173 75.928C272.631 76.1947 273.127 76.328 273.661 76.328C274.205 76.328 274.717 76.1893 275.197 75.912C275.687 75.6347 276.029 75.272 276.221 74.824L277.165 75.08C276.994 75.4747 276.733 75.832 276.381 76.152C276.029 76.472 275.613 76.7227 275.133 76.904C274.663 77.0747 274.157 77.16 273.613 77.16ZM270.541 72.44H276.701C276.658 71.832 276.493 71.2987 276.205 70.84C275.927 70.3813 275.559 70.024 275.101 69.768C274.653 69.5013 274.157 69.368 273.613 69.368C273.069 69.368 272.573 69.5013 272.125 69.768C271.677 70.024 271.309 70.3867 271.021 70.856C270.743 71.3147 270.583 71.8427 270.541 72.44ZM278.475 78.936V76.024H278.619C278.864 76.024 279.088 75.9493 279.291 75.8C279.494 75.6507 279.675 75.3893 279.835 75.016C279.995 74.6427 280.123 74.1307 280.219 73.48C280.315 72.8187 280.379 71.9867 280.411 70.984L280.491 68.664H285.915V76.024H287.035V78.936H286.059V77H279.435V78.936H278.475ZM280.267 76.024H284.827V69.64H281.467L281.419 71.08C281.387 72.072 281.318 72.904 281.211 73.576C281.115 74.2373 280.987 74.7653 280.827 75.16C280.678 75.544 280.491 75.832 280.267 76.024ZM292.3 77.16C291.692 77.16 291.132 77.048 290.62 76.824C290.119 76.5893 289.676 76.2693 289.292 75.864C288.919 75.4587 288.626 74.9947 288.412 74.472C288.21 73.9493 288.108 73.3947 288.108 72.808C288.108 72.0187 288.284 71.2987 288.636 70.648C288.988 69.9973 289.479 69.48 290.108 69.096C290.738 68.712 291.463 68.52 292.284 68.52C293.063 68.52 293.751 68.7013 294.348 69.064C294.946 69.416 295.388 69.896 295.676 70.504L294.62 70.84C294.386 70.4133 294.055 70.0827 293.628 69.848C293.212 69.6027 292.748 69.48 292.236 69.48C291.682 69.48 291.175 69.624 290.716 69.912C290.258 70.2 289.89 70.5947 289.612 71.096C289.346 71.5973 289.212 72.168 289.212 72.808C289.212 73.4373 289.351 74.008 289.628 74.52C289.906 75.032 290.274 75.4427 290.732 75.752C291.191 76.0507 291.698 76.2 292.252 76.2C292.615 76.2 292.962 76.136 293.292 76.008C293.634 75.88 293.927 75.7093 294.172 75.496C294.428 75.272 294.599 75.032 294.684 74.776L295.756 75.096C295.607 75.4907 295.356 75.848 295.004 76.168C294.663 76.4773 294.258 76.7227 293.788 76.904C293.33 77.0747 292.834 77.16 292.3 77.16ZM299.546 77V69.64H296.57V68.664H303.61V69.64H300.634V77H299.546ZM305.075 77V68.664H309.235C309.704 68.664 310.099 68.7653 310.419 68.968C310.739 69.16 310.979 69.4107 311.139 69.72C311.309 70.0293 311.395 70.36 311.395 70.712C311.395 71.16 311.288 71.5653 311.075 71.928C310.861 72.28 310.552 72.5467 310.147 72.728C310.627 72.8667 311.016 73.1173 311.315 73.48C311.613 73.8427 311.763 74.28 311.763 74.792C311.763 75.24 311.651 75.6293 311.427 75.96C311.213 76.2907 310.915 76.5467 310.531 76.728C310.157 76.9093 309.725 77 309.235 77H305.075ZM306.115 76.216H309.203C309.48 76.216 309.731 76.1467 309.955 76.008C310.189 75.8587 310.371 75.6667 310.499 75.432C310.637 75.1973 310.707 74.952 310.707 74.696C310.707 74.4187 310.643 74.168 310.515 73.944C310.387 73.7093 310.216 73.5227 310.003 73.384C309.789 73.2453 309.544 73.176 309.267 73.176H306.115V76.216ZM306.115 72.424H308.947C309.224 72.424 309.469 72.3493 309.683 72.2C309.896 72.0507 310.061 71.8587 310.179 71.624C310.296 71.3893 310.355 71.144 310.355 70.888C310.355 70.504 310.227 70.168 309.971 69.88C309.725 69.592 309.405 69.448 309.011 69.448H306.115V72.424ZM312.981 74.6C312.981 74.0773 313.13 73.6293 313.429 73.256C313.728 72.872 314.138 72.5787 314.661 72.376C315.194 72.1627 315.808 72.056 316.501 72.056C316.906 72.056 317.328 72.088 317.765 72.152C318.202 72.216 318.592 72.312 318.933 72.44V71.736C318.933 71.032 318.725 70.472 318.309 70.056C317.893 69.64 317.317 69.432 316.581 69.432C316.133 69.432 315.69 69.5173 315.253 69.688C314.826 69.848 314.378 70.088 313.909 70.408L313.493 69.64C314.037 69.2667 314.57 68.9893 315.093 68.808C315.616 68.616 316.149 68.52 316.693 68.52C317.717 68.52 318.528 68.8133 319.125 69.4C319.722 69.9867 320.021 70.7973 320.021 71.832V75.688C320.021 75.8373 320.053 75.9493 320.117 76.024C320.181 76.088 320.282 76.1253 320.421 76.136V77C320.304 77.0107 320.202 77.0213 320.117 77.032C320.032 77.0427 319.968 77.0427 319.925 77.032C319.658 77.0213 319.456 76.936 319.317 76.776C319.178 76.616 319.104 76.4453 319.093 76.264L319.077 75.656C318.704 76.136 318.218 76.5093 317.621 76.776C317.024 77.032 316.416 77.16 315.797 77.16C315.264 77.16 314.778 77.048 314.341 76.824C313.914 76.5893 313.578 76.28 313.333 75.896C313.098 75.5013 312.981 75.0693 312.981 74.6ZM318.565 75.24C318.682 75.0907 318.773 74.9467 318.837 74.808C318.901 74.6693 318.933 74.5467 318.933 74.44V73.224C318.57 73.0853 318.192 72.9787 317.797 72.904C317.413 72.8293 317.024 72.792 316.629 72.792C315.85 72.792 315.221 72.9467 314.741 73.256C314.261 73.5653 314.021 73.9867 314.021 74.52C314.021 74.8293 314.101 75.1227 314.261 75.4C314.421 75.6667 314.656 75.8907 314.965 76.072C315.274 76.2427 315.637 76.328 316.053 76.328C316.576 76.328 317.061 76.2267 317.509 76.024C317.968 75.8213 318.32 75.56 318.565 75.24Z" fill="#BFBDB2"/>
<g clip-path="url(#clip0_26_3)">
<path d="M77.4951 41.6145C77.5171 41.0946 77.5758 40.582 77.5758 40.0497C77.5758 39.5797 77.5221 39.1219 77.5049 38.6547C77.6929 37.7501 78.1446 36.8275 78.5816 35.9706C79.0135 35.015 79.4602 34.1606 79.5579 33.6747C79.9536 32.0734 79.021 31.1103 77.9956 30.4854C77.2631 30.0338 76.4941 29.7384 76.0133 29.4027C75.7399 28.486 75.4129 27.5864 75.0736 26.699C74.9758 25.7409 75.0688 24.6912 75.1516 23.7318C75.2762 22.6736 75.4397 21.7094 75.3885 21.2113C74.9319 18.399 71.9635 18.6871 70.572 18.3367C70.013 17.5616 69.4467 16.7939 68.8364 16.0616C67.9185 14.3344 67.838 11.6346 67.3425 10.8302C66.0878 8.23287 63.2973 9.56309 61.8864 9.65236C61.1101 9.09209 60.307 8.57217 59.4866 8.08026C58.1171 6.63757 57.0722 4.27816 56.3911 3.57009C55.261 2.37889 53.9157 2.68641 52.8589 3.14529C52.085 3.48103 51.4162 3.97524 50.867 4.22318C49.9002 3.93636 48.9264 3.67755 47.9327 3.46515C46.2043 2.59129 44.5272 0.652928 43.668 0.289171C42.2033 -0.378553 41.0437 0.216001 40.1918 1.00331C39.5743 1.62336 39.0993 2.31534 38.6613 2.72551C37.6714 2.76585 36.6864 2.82314 35.7197 2.93791C33.779 2.71819 31.5124 1.34616 30.575 1.32295C28.9601 1.12163 28.0423 2.02371 27.5224 3.14027C27.1304 3.91775 26.9023 4.72094 26.613 5.2348C25.7049 5.58999 24.8285 5.98301 23.9607 6.4028C22.0052 6.76049 19.4689 6.34782 18.5058 6.53471C16.8861 6.8253 16.4113 8.12019 16.2208 9.26038C16.0756 10.0951 16.128 10.9399 16.034 11.5343C15.2759 12.1775 14.5338 12.8367 13.8307 13.5372C12.1635 14.5296 9.55134 14.8372 8.80669 15.3866C6.34715 16.8817 7.86698 19.5267 8.089 20.9341C7.59458 21.7615 7.13194 22.6038 6.69878 23.4741C6.10443 24.193 5.22682 24.7959 4.45895 25.361C3.61918 25.9957 2.81724 26.5328 2.49759 26.9137C1.36974 28.1281 1.78973 29.4428 2.36212 30.4655C2.79424 31.2125 3.30434 31.8326 3.58029 32.3525C3.38002 33.3106 3.24204 34.2871 3.11514 35.2696C2.32658 37.0847 0.670236 38.9643 0.250452 39.8565C-0.665004 42.532 2.02283 43.6988 3.08943 44.673C3.21528 45.6762 3.352 46.687 3.55939 47.6708C3.46427 49.5969 2.30212 51.9109 2.36191 52.8289C2.26909 55.7071 5.3096 55.8781 6.61453 56.4568C7.03912 57.3282 7.49444 58.1729 7.98154 59.0029C8.26356 59.8964 8.29387 60.9582 8.34405 61.9176C8.41366 62.9672 8.42955 63.9362 8.56857 64.4074C8.97372 66.0161 10.3019 66.3776 11.4688 66.4628C12.3366 66.5118 13.1362 66.4192 13.7281 66.4752C14.4188 67.1636 15.1488 67.8081 15.8885 68.4403C17.0077 70.0588 17.6107 72.5829 18.1734 73.3665C19.1449 74.653 20.4473 74.6823 21.575 74.3917C22.4198 74.1402 23.1728 73.752 23.7525 73.6082C24.6278 74.0378 25.5151 74.4381 26.4219 74.8044C27.1873 75.3293 27.8719 76.1055 28.4824 76.8671C29.1719 77.6799 29.7896 78.3928 30.1948 78.6834C30.8489 79.1592 31.497 79.3083 32.0915 79.2596C32.697 79.1642 33.2509 78.8716 33.7443 78.5298C34.4534 78.0414 35.0306 77.4456 35.5263 77.1333C36.4919 77.2528 37.4659 77.3189 38.4508 77.3701C40.3306 77.9975 42.3493 79.5451 43.2768 79.8357C44.8416 80.3897 45.8744 79.4379 46.5845 78.5346C47.0973 77.856 47.4586 77.1308 47.8223 76.6669C48.8062 76.462 49.763 76.1982 50.7151 75.9201C52.6729 75.8808 55.0824 76.7329 56.0368 76.7011C57.6455 76.5889 58.3828 75.5072 58.7539 74.4063C59.0077 73.559 59.0884 72.7147 59.2834 72.1481C60.0939 71.6648 60.8946 71.1643 61.6612 70.6224C62.5376 70.2365 63.5898 70.0684 64.593 69.9754C65.6475 69.8339 66.5849 69.7168 67.0513 69.536C68.6014 68.9792 68.9163 67.6929 68.8626 66.4796C68.8431 65.6155 68.6625 64.7977 68.6819 64.2117C69.2899 63.4938 69.8587 62.7423 70.4104 61.978C70.7497 61.6924 71.1135 61.4238 71.5332 61.1942C71.9873 60.9015 72.4782 60.645 72.959 60.4107C73.9159 59.937 74.8142 59.5467 75.1999 59.2341C77.3019 57.3152 75.4587 54.9938 74.9852 53.6364C75.3391 52.7283 75.6809 51.8154 75.969 50.8782C76.921 49.184 79.1132 47.6631 79.4991 46.8112C80.9569 44.3412 78.3765 42.7471 77.4951 41.6145ZM40.1747 73.3251C21.8281 73.3251 6.89926 58.3977 6.89926 40.0497C6.89926 21.7044 21.8281 6.77533 40.1747 6.77533C58.5199 6.77533 73.4478 21.7044 73.4478 40.0497C73.4478 58.3975 58.5227 73.3251 40.1747 73.3251Z" fill="#F6F3E3"/>
<path d="M40.4022 8.57788C23.071 8.57788 8.97461 22.6733 8.97461 40.0019C8.97461 57.328 23.071 71.4234 40.4022 71.4234C57.7273 71.4234 71.8249 57.3255 71.8249 40.0019C71.8249 22.6707 57.7247 8.57788 40.4022 8.57788ZM40.4022 69.4144C24.183 69.4144 10.9872 56.2223 10.9872 40.0021C10.9872 23.7842 24.183 10.5848 40.4022 10.5848C56.6188 10.5848 69.8109 23.7817 69.8109 40.0021C69.8111 56.2175 56.6188 69.4144 40.4022 69.4144Z" fill="#F6F3E3"/>
<path d="M37.3896 58.1432H46.8852L48.3314 24.7794H35.9443L37.3896 58.1432Z" fill="#F6F3E3"/>
<path d="M44.4427 17H39.5605V23.9642H44.4427V17Z" fill="#F6F3E3"/>
<path d="M23.8421 57.987H31.5928L32.7729 30.7462H22.6621L23.8421 57.987Z" fill="#F6F3E3"/>
<path d="M29.5987 24.396H25.6143V30.0805H29.5987V24.396Z" fill="#F6F3E3"/>
<path d="M52.0603 58.2558H59.8086L60.9887 31.0137H50.8779L52.0603 58.2558Z" fill="#F6F3E3"/>
<path d="M57.8179 24.6693H53.8301V30.3538H57.8179V24.6693Z" fill="#F6F3E3"/>
</g>
<defs>
<clipPath id="clip0_26_3">
<rect width="80" height="80" fill="white"/>
</clipPath>
</defs>
</svg>
