<svg width="80" height="80" viewBox="0 0 80 80" fill="none" xmlns="http://www.w3.org/2000/svg">
<g clip-path="url(#clip0_14_55)">
<path d="M77.4951 41.6145C77.5171 41.0946 77.5758 40.582 77.5758 40.0497C77.5758 39.5797 77.5221 39.1219 77.5049 38.6547C77.6929 37.7501 78.1446 36.8275 78.5816 35.9706C79.0135 35.015 79.4602 34.1606 79.5579 33.6747C79.9536 32.0734 79.021 31.1103 77.9956 30.4854C77.2631 30.0338 76.4941 29.7384 76.0133 29.4027C75.7399 28.486 75.4129 27.5864 75.0736 26.699C74.9758 25.7409 75.0688 24.6912 75.1516 23.7318C75.2762 22.6736 75.4397 21.7094 75.3884 21.2113C74.9319 18.399 71.9635 18.6871 70.572 18.3367C70.013 17.5616 69.4467 16.7939 68.8364 16.0616C67.9185 14.3344 67.838 11.6346 67.3425 10.8302C66.0878 8.23287 63.2973 9.56309 61.8864 9.65236C61.1101 9.09209 60.307 8.57217 59.4866 8.08026C58.1171 6.63757 57.0722 4.27816 56.3911 3.57009C55.261 2.37889 53.9157 2.68641 52.8589 3.14529C52.085 3.48103 51.4162 3.97524 50.867 4.22318C49.9002 3.93636 48.9264 3.67755 47.9327 3.46515C46.2043 2.59129 44.5272 0.652928 43.668 0.289171C42.2033 -0.378553 41.0437 0.216001 40.1918 1.00331C39.5743 1.62336 39.0993 2.31534 38.6613 2.72551C37.6714 2.76585 36.6864 2.82314 35.7197 2.93791C33.779 2.71819 31.5124 1.34616 30.575 1.32295C28.9601 1.12163 28.0423 2.02371 27.5224 3.14027C27.1304 3.91775 26.9023 4.72094 26.613 5.2348C25.7049 5.58999 24.8285 5.98301 23.9607 6.4028C22.0052 6.76049 19.4689 6.34782 18.5058 6.53471C16.8861 6.8253 16.4113 8.12019 16.2208 9.26038C16.0756 10.0951 16.128 10.9399 16.034 11.5343C15.2759 12.1775 14.5338 12.8367 13.8307 13.5372C12.1635 14.5296 9.55134 14.8372 8.80669 15.3866C6.34715 16.8817 7.86698 19.5267 8.089 20.9341C7.59458 21.7615 7.13194 22.6038 6.69878 23.4741C6.10443 24.193 5.22682 24.7959 4.45895 25.361C3.61918 25.9957 2.81724 26.5328 2.49759 26.9137C1.36974 28.1281 1.78973 29.4428 2.36212 30.4655C2.79424 31.2125 3.30434 31.8325 3.58029 32.3525C3.38002 33.3106 3.24204 34.2871 3.11514 35.2696C2.32658 37.0847 0.670236 38.9643 0.250452 39.8565C-0.665004 42.532 2.02283 43.6988 3.08943 44.673C3.21528 45.6762 3.352 46.687 3.55939 47.6708C3.46427 49.5969 2.30212 51.9109 2.36191 52.8289C2.26909 55.7071 5.3096 55.8781 6.61453 56.4568C7.03912 57.3282 7.49444 58.1729 7.98154 59.0029C8.26356 59.8964 8.29387 60.9582 8.34405 61.9176C8.41366 62.9672 8.42955 63.9362 8.56857 64.4074C8.97372 66.0161 10.3019 66.3776 11.4688 66.4628C12.3366 66.5118 13.1362 66.4192 13.7281 66.4752C14.4188 67.1636 15.1488 67.8081 15.8885 68.4403C17.0077 70.0588 17.6107 72.583 18.1734 73.3665C19.1449 74.653 20.4473 74.6823 21.575 74.3917C22.4198 74.1402 23.1728 73.752 23.7525 73.6082C24.6278 74.0378 25.5151 74.4381 26.4219 74.8044C27.1873 75.3293 27.8719 76.1055 28.4824 76.8671C29.1719 77.6799 29.7896 78.3928 30.1948 78.6834C30.8489 79.1592 31.497 79.3083 32.0915 79.2596C32.697 79.1642 33.251 78.8716 33.7443 78.5298C34.4534 78.0414 35.0306 77.4456 35.5263 77.1333C36.4919 77.2528 37.4659 77.3189 38.4508 77.3701C40.3306 77.9975 42.3493 79.5451 43.2768 79.8357C44.8416 80.3897 45.8744 79.4379 46.5845 78.5346C47.0973 77.856 47.4586 77.1308 47.8223 76.6669C48.8062 76.462 49.763 76.1982 50.7151 75.9201C52.6729 75.8808 55.0824 76.7329 56.0368 76.7011C57.6455 76.5889 58.3828 75.5072 58.7539 74.4063C59.0077 73.559 59.0884 72.7147 59.2834 72.1481C60.0939 71.6648 60.8946 71.1643 61.6612 70.6224C62.5376 70.2365 63.5898 70.0684 64.593 69.9754C65.6475 69.8339 66.5849 69.7168 67.0513 69.536C68.6015 68.9792 68.9163 67.6929 68.8626 66.4796C68.8431 65.6155 68.6625 64.7977 68.6819 64.2117C69.2899 63.4938 69.8587 62.7423 70.4104 61.978C70.7497 61.6924 71.1135 61.4238 71.5332 61.1942C71.9873 60.9015 72.4782 60.645 72.959 60.4107C73.9159 59.937 74.8142 59.5467 75.1999 59.2341C77.3019 57.3152 75.4587 54.9938 74.9852 53.6364C75.3391 52.7283 75.6809 51.8154 75.969 50.8782C76.921 49.184 79.1132 47.6631 79.4991 46.8112C80.9569 44.3412 78.3765 42.7471 77.4951 41.6145ZM40.1747 73.3251C21.8281 73.3251 6.89926 58.3977 6.89926 40.0497C6.89926 21.7044 21.8281 6.77533 40.1747 6.77533C58.5199 6.77533 73.4478 21.7044 73.4478 40.0497C73.4478 58.3975 58.5227 73.3251 40.1747 73.3251Z" fill="#F6F3E3"/>
<path d="M40.4022 8.57788C23.071 8.57788 8.97461 22.6733 8.97461 40.0019C8.97461 57.328 23.071 71.4234 40.4022 71.4234C57.7273 71.4234 71.8249 57.3255 71.8249 40.0019C71.8249 22.6707 57.7247 8.57788 40.4022 8.57788ZM40.4022 69.4144C24.183 69.4144 10.9872 56.2223 10.9872 40.0021C10.9872 23.7842 24.183 10.5848 40.4022 10.5848C56.6188 10.5848 69.8109 23.7817 69.8109 40.0021C69.8111 56.2175 56.6188 69.4144 40.4022 69.4144Z" fill="#F6F3E3"/>
<path d="M37.3896 58.1432H46.8852L48.3314 24.7794H35.9443L37.3896 58.1432Z" fill="#F6F3E3"/>
<path d="M44.4427 17H39.5605V23.9642H44.4427V17Z" fill="#F6F3E3"/>
<path d="M23.8421 57.987H31.5928L32.7729 30.7462H22.6621L23.8421 57.987Z" fill="#F6F3E3"/>
<path d="M29.5987 24.396H25.6143V30.0805H29.5987V24.396Z" fill="#F6F3E3"/>
<path d="M52.0603 58.2558H59.8086L60.9887 31.0137H50.8779L52.0603 58.2558Z" fill="#F6F3E3"/>
<path d="M57.8179 24.6693H53.8301V30.3538H57.8179V24.6693Z" fill="#F6F3E3"/>
</g>
<defs>
<clipPath id="clip0_14_55">
<rect width="80" height="80" fill="white"/>
</clipPath>
</defs>
</svg>
