<svg width="70" height="40" viewBox="0 0 70 40" fill="none" xmlns="http://www.w3.org/2000/svg">
<path d="M36.6934 11.0646L37.456 10.3196L22.9986 14.9989L21.8779 18.3346L36.6934 11.0646Z" fill="#F6F3E3"/>
<path d="M17.7224 16.2498L8.50408 16.5904C8.41894 16.4764 8.32753 16.3662 8.22861 16.2635C6.9414 14.925 4.68752 14.7434 2.87065 15.8291C1.86142 16.4313 1.11263 17.3391 0.759523 18.3847C0.395147 19.4628 0.495319 20.5584 1.04 21.4675C1.17399 21.6941 1.33426 21.9032 1.51582 22.0911C2.50127 23.1141 4.05143 23.4609 5.53899 23.079C5.58156 23.1604 5.6329 23.2405 5.70052 23.3107C6.08117 23.7051 6.70975 23.7176 7.10543 23.3382C7.41471 23.0402 7.48608 22.5907 7.32205 22.22C8.10465 21.6328 8.6869 20.8502 8.98491 19.9674C9.18901 19.3664 9.2416 18.7603 9.15896 18.1831L16.5992 18.4198L17.7224 16.2498ZM7.85547 19.5905C7.59377 20.3681 7.0278 21.048 6.26148 21.5051C4.91542 22.3102 3.28011 22.2088 2.3723 21.2684C2.25334 21.1432 2.14816 21.0067 2.06051 20.8615C1.69738 20.2554 1.63603 19.5116 1.88646 18.7691C2.14816 17.9915 2.71413 17.3116 3.4792 16.8533C4.82526 16.0482 6.46182 16.1484 7.36838 17.0912C7.48734 17.2152 7.59252 17.3529 7.68017 17.4994C8.0458 18.1042 8.1059 18.848 7.85547 19.5905Z" fill="#F6F3E3"/>
<path d="M19.5739 39.8504C19.6365 39.5937 18.5809 36.7237 19.6027 35.6206C20.0359 35.2825 20.4191 34.8668 20.7296 34.3897C21.8841 32.6142 21.7889 30.3553 20.5017 29.018C20.4667 28.9817 20.4266 28.9504 20.3903 28.9141L21.0189 18.4636L27.2158 0.000610352L26.2641 1.22396L17.4991 18.1856L18.9616 19.7746L18.4056 27.9799C17.896 27.9198 17.3626 27.9649 16.8279 28.1214C15.7699 28.4345 14.8345 29.147 14.1934 30.1324C13.0389 31.9079 13.1341 34.1668 14.4213 35.5054C14.6028 35.6907 14.8069 35.8597 15.0261 36.0012C15.5207 36.3243 16.0779 36.5046 16.6626 36.5509C18.1014 37.1945 18.194 39.188 18.3668 39.5987C18.5421 40.0144 19.5063 40.1208 19.5739 39.8504ZM19.058 18.2094C18.8201 17.9602 18.8276 17.5658 19.0755 17.3266C19.3235 17.09 19.7179 17.0962 19.957 17.3454C20.195 17.5921 20.1874 17.9878 19.9395 18.2257C19.6903 18.4648 19.2959 18.4573 19.058 18.2094ZM17.7595 35.2575C17.007 35.4803 16.267 35.3877 15.6747 35.0045C15.5307 34.9106 15.398 34.8017 15.279 34.6765C14.3712 33.7348 14.3349 32.0945 15.1901 30.7823C15.6759 30.0322 16.3771 29.4951 17.1647 29.2622C17.9173 29.0393 18.6561 29.1307 19.2483 29.5138C19.3923 29.609 19.5251 29.7192 19.644 29.8444C20.5518 30.786 20.5869 32.4251 19.7329 33.7398C19.2458 34.4861 18.5446 35.0271 17.7595 35.2575Z" fill="#F6F3E3"/>
<path d="M37.7801 6.8C35.9668 6.8 35.0601 8.30667 35.0601 11.32C35.0601 14.3333 35.9801 15.84 37.8201 15.84C38.5135 15.84 39.0801 15.5867 39.5201 15.08C39.9735 14.5733 40.2868 13.92 40.4601 13.12L40.8201 13.16C40.6201 14.1333 40.2201 14.92 39.6201 15.52C39.0201 16.1067 38.2601 16.4 37.3401 16.4C35.9668 16.4 34.9201 15.94 34.2001 15.02C33.4801 14.0867 33.1201 12.8667 33.1201 11.36C33.1201 9.85334 33.4801 8.65334 34.2001 7.76C34.9335 6.85334 36.0201 6.4 37.4601 6.4C38.3801 6.4 39.1268 6.6 39.7001 7C40.2735 7.4 40.5601 8.00667 40.5601 8.82C40.5601 9.22 40.4268 9.56 40.1601 9.84C39.9068 10.1067 39.6001 10.24 39.2401 10.24C38.8935 10.24 38.6068 10.14 38.3801 9.94C38.1668 9.72667 38.0601 9.47334 38.0601 9.18C38.0601 8.87334 38.1468 8.62 38.3201 8.42C38.4935 8.20667 38.7268 8.1 39.0201 8.1C39.4735 8.1 39.7401 8.27334 39.8201 8.62C39.8335 8.74 39.8935 8.8 40.0001 8.8C40.1201 8.8 40.1801 8.74 40.1801 8.62C40.1801 8.16667 39.9735 7.75334 39.5601 7.38C39.1601 6.99334 38.5668 6.8 37.7801 6.8Z" fill="#F6F3E3"/>
<path d="M46.3998 15.7V16H41.9798V15.7H43.2998V2.5H41.8798V2.2H42.2998C43.3531 2.2 44.2931 2.11334 45.1198 1.94V8.54H45.2398C45.4665 7.9 45.8465 7.38667 46.3798 7C46.9265 6.6 47.5331 6.4 48.1998 6.4C49.3598 6.4 50.1531 6.74667 50.5798 7.44C51.0065 8.12 51.2198 9.14 51.2198 10.5V15.7H52.5398V16H48.1198V15.7H49.4398V10.78C49.4398 9.27334 49.3265 8.28 49.0998 7.8C48.9931 7.58667 48.8265 7.39334 48.5998 7.22C48.3865 7.04667 48.0665 6.96 47.6398 6.96C47.2131 6.96 46.8065 7.11334 46.4198 7.42C46.0465 7.72667 45.7665 8.14667 45.5798 8.68C45.2465 9.62667 45.0798 10.76 45.0798 12.08V15.7H46.3998Z" fill="#F6F3E3"/>
<path d="M56.8776 15.7H58.1976V16H53.7776V15.7H55.0976V7.1H53.6776V6.8H54.0976C55.1376 6.8 56.0643 6.71334 56.8776 6.54V15.7ZM55.0776 4.62C54.8643 4.39334 54.7576 4.11334 54.7576 3.78C54.7576 3.44667 54.8643 3.16667 55.0776 2.94C55.3043 2.71334 55.5843 2.6 55.9176 2.6C56.2509 2.6 56.5309 2.71334 56.7576 2.94C56.9843 3.16667 57.0976 3.44667 57.0976 3.78C57.0976 4.11334 56.9843 4.39334 56.7576 4.62C56.5309 4.83334 56.2509 4.94 55.9176 4.94C55.5843 4.94 55.3043 4.83334 55.0776 4.62Z" fill="#F6F3E3"/>
<path d="M63.9956 10.76L62.7156 10.98V15.7H64.0356V16H59.6156V15.7H60.9356V2.5H59.5156V2.2H59.9356C60.9756 2.2 61.9023 2.11334 62.7156 1.94V10.64C65.3556 10.2933 66.6756 9.44 66.6756 8.08C66.6756 7.68 66.5689 7.36 66.3556 7.12C66.1556 6.88 65.9023 6.76 65.5956 6.76C65.4623 6.76 65.3956 6.81334 65.3956 6.92C65.3956 7.02667 65.4556 7.09334 65.5756 7.12C65.9223 7.2 66.0956 7.46 66.0956 7.9C66.0956 8.18 65.9889 8.41334 65.7756 8.6C65.5756 8.77334 65.3223 8.86 65.0156 8.86C64.7223 8.86 64.4689 8.75333 64.2556 8.54C64.0556 8.31334 63.9556 8.02667 63.9556 7.68C63.9556 7.33334 64.0889 7.03334 64.3556 6.78C64.6356 6.52667 65.0023 6.4 65.4556 6.4C65.9089 6.4 66.2823 6.55334 66.5756 6.86C66.8689 7.15334 67.0156 7.56 67.0156 8.08C67.0156 9.18667 66.3223 9.98667 64.9356 10.48V10.52C65.9756 10.5733 66.6556 10.8467 66.9756 11.34C67.2956 11.8333 67.4556 12.64 67.4556 13.76V14.52C67.4556 15.0267 67.4956 15.3933 67.5756 15.62C67.6689 15.8333 67.8356 15.94 68.0756 15.94C68.1689 15.94 68.2889 15.92 68.4356 15.88L68.4756 16.12C68.1289 16.2133 67.7689 16.26 67.3956 16.26C66.2489 16.26 65.6756 15.6 65.6756 14.28V13.2C65.6756 11.5733 65.1556 10.76 64.1156 10.76H63.9956Z" fill="#F6F3E3"/>
<path d="M37.7801 26.8C35.9668 26.8 35.0601 28.3067 35.0601 31.32C35.0601 34.3333 35.9801 35.84 37.8201 35.84C38.5135 35.84 39.0801 35.5867 39.5201 35.08C39.9735 34.5733 40.2868 33.92 40.4601 33.12L40.8201 33.16C40.6201 34.1333 40.2201 34.92 39.6201 35.52C39.0201 36.1067 38.2601 36.4 37.3401 36.4C35.9668 36.4 34.9201 35.94 34.2001 35.02C33.4801 34.0867 33.1201 32.8667 33.1201 31.36C33.1201 29.8533 33.4801 28.6533 34.2001 27.76C34.9335 26.8533 36.0201 26.4 37.4601 26.4C38.3801 26.4 39.1268 26.6 39.7001 27C40.2735 27.4 40.5601 28.0067 40.5601 28.82C40.5601 29.22 40.4268 29.56 40.1601 29.84C39.9068 30.1067 39.6001 30.24 39.2401 30.24C38.8935 30.24 38.6068 30.14 38.3801 29.94C38.1668 29.7267 38.0601 29.4733 38.0601 29.18C38.0601 28.8733 38.1468 28.62 38.3201 28.42C38.4935 28.2067 38.7268 28.1 39.0201 28.1C39.4735 28.1 39.7401 28.2733 39.8201 28.62C39.8335 28.74 39.8935 28.8 40.0001 28.8C40.1201 28.8 40.1801 28.74 40.1801 28.62C40.1801 28.1667 39.9735 27.7533 39.5601 27.38C39.1601 26.9933 38.5668 26.8 37.7801 26.8Z" fill="#F6F3E3"/>
<path d="M46.3998 35.7V36H41.9798V35.7H43.2998V22.5H41.8798V22.2H42.2998C43.3531 22.2 44.2931 22.1133 45.1198 21.94V28.54H45.2398C45.4665 27.9 45.8465 27.3867 46.3798 27C46.9265 26.6 47.5331 26.4 48.1998 26.4C49.3598 26.4 50.1531 26.7467 50.5798 27.44C51.0065 28.12 51.2198 29.14 51.2198 30.5V35.7H52.5398V36H48.1198V35.7H49.4398V30.78C49.4398 29.2733 49.3265 28.28 49.0998 27.8C48.9931 27.5867 48.8265 27.3933 48.5998 27.22C48.3865 27.0467 48.0665 26.96 47.6398 26.96C47.2131 26.96 46.8065 27.1133 46.4198 27.42C46.0465 27.7267 45.7665 28.1467 45.5798 28.68C45.2465 29.6267 45.0798 30.76 45.0798 32.08V35.7H46.3998Z" fill="#F6F3E3"/>
<path d="M56.8776 35.7H58.1976V36H53.7776V35.7H55.0976V27.1H53.6776V26.8H54.0976C55.1376 26.8 56.0643 26.7133 56.8776 26.54V35.7ZM55.0776 24.62C54.8643 24.3933 54.7576 24.1133 54.7576 23.78C54.7576 23.4467 54.8643 23.1667 55.0776 22.94C55.3043 22.7133 55.5843 22.6 55.9176 22.6C56.2509 22.6 56.5309 22.7133 56.7576 22.94C56.9843 23.1667 57.0976 23.4467 57.0976 23.78C57.0976 24.1133 56.9843 24.3933 56.7576 24.62C56.5309 24.8333 56.2509 24.94 55.9176 24.94C55.5843 24.94 55.3043 24.8333 55.0776 24.62Z" fill="#F6F3E3"/>
<path d="M63.9956 30.76L62.7156 30.98V35.7H64.0356V36H59.6156V35.7H60.9356V22.5H59.5156V22.2H59.9356C60.9756 22.2 61.9023 22.1133 62.7156 21.94V30.64C65.3556 30.2933 66.6756 29.44 66.6756 28.08C66.6756 27.68 66.5689 27.36 66.3556 27.12C66.1556 26.88 65.9023 26.76 65.5956 26.76C65.4623 26.76 65.3956 26.8133 65.3956 26.92C65.3956 27.0267 65.4556 27.0933 65.5756 27.12C65.9223 27.2 66.0956 27.46 66.0956 27.9C66.0956 28.18 65.9889 28.4133 65.7756 28.6C65.5756 28.7733 65.3223 28.86 65.0156 28.86C64.7223 28.86 64.4689 28.7533 64.2556 28.54C64.0556 28.3133 63.9556 28.0267 63.9556 27.68C63.9556 27.3333 64.0889 27.0333 64.3556 26.78C64.6356 26.5267 65.0023 26.4 65.4556 26.4C65.9089 26.4 66.2823 26.5533 66.5756 26.86C66.8689 27.1533 67.0156 27.56 67.0156 28.08C67.0156 29.1867 66.3223 29.9867 64.9356 30.48V30.52C65.9756 30.5733 66.6556 30.8467 66.9756 31.34C67.2956 31.8333 67.4556 32.64 67.4556 33.76V34.52C67.4556 35.0267 67.4956 35.3933 67.5756 35.62C67.6689 35.8333 67.8356 35.94 68.0756 35.94C68.1689 35.94 68.2889 35.92 68.4356 35.88L68.4756 36.12C68.1289 36.2133 67.7689 36.26 67.3956 36.26C66.2489 36.26 65.6756 35.6 65.6756 34.28V33.2C65.6756 31.5733 65.1556 30.76 64.1156 30.76H63.9956Z" fill="#F6F3E3"/>
</svg>
