<svg width="80" height="80" viewBox="0 0 80 80" fill="none" xmlns="http://www.w3.org/2000/svg">
<g clip-path="url(#clip0_16_67)">
<path d="M77.4961 41.6206C77.5178 41.0989 77.5765 40.5845 77.5765 40.0555C77.5765 39.5837 77.5228 39.129 77.5034 38.66C77.6909 37.7567 78.1443 36.8281 78.5783 35.9747C79.0096 35.0205 79.4584 34.1648 79.5559 33.6809C79.9509 32.0781 79.0171 31.1115 77.9934 30.4898C77.2621 30.0339 76.4893 29.7392 76.0091 29.4064C75.7359 28.4887 75.4094 27.5892 75.0681 26.7007C74.9731 25.7427 75.0633 24.6945 75.1461 23.7353C75.2706 22.6773 75.4363 21.7108 75.3827 21.2148C74.9244 18.4016 71.9576 18.688 70.5658 18.3383C70.0101 17.5632 69.4419 16.7964 68.8325 16.0652C67.9158 14.3381 67.8357 11.6372 67.3359 10.8302C66.0805 8.23407 63.2917 9.5626 61.8828 9.65529C61.1027 9.09582 60.3006 8.57664 59.4817 8.07938C58.1093 6.6375 57.0659 4.28251 56.3833 3.57441C55.2522 2.37865 53.9089 2.68594 52.8511 3.14416C52.0758 3.48172 51.408 3.97543 50.8571 4.22281C49.8941 3.93639 48.9192 3.67691 47.922 3.46711C46.1937 2.59075 44.5167 0.655153 43.6598 0.28962C42.1945 -0.379655 41.0342 0.216555 40.1835 1.00273C39.5644 1.62441 39.0926 2.3154 38.6527 2.72498C37.6643 2.76506 36.6783 2.82247 35.7105 2.93937C33.7701 2.71767 31.5043 1.34509 30.5657 1.32192C28.9556 1.12569 28.0366 2.03128 27.5172 3.14416C27.1248 3.92053 26.8981 4.72508 26.6091 5.23945C25.7048 5.59413 24.8284 5.98305 23.9604 6.40473C22.0054 6.76442 19.4667 6.34983 18.5062 6.5375C16.884 6.82642 16.4087 8.12197 16.2197 9.26032C16.0746 10.0964 16.127 10.9398 16.0295 11.5347C15.2713 12.1783 14.5315 12.8376 13.8259 13.5386C12.1636 14.5318 9.5466 14.8366 8.80301 15.3888C6.34469 16.8843 7.86444 19.5268 8.08635 20.9344C7.59264 21.7632 7.13087 22.6078 6.69916 23.4733C6.10212 24.195 5.22555 24.797 4.45774 25.3613C3.61791 25.9951 2.81461 26.5339 2.49292 26.9141C1.36668 28.1317 1.78586 29.4444 2.35765 30.4656C2.7927 31.214 3.30123 31.8332 3.57658 32.3549C3.37659 33.3129 3.23651 34.2892 3.1098 35.2704C2.32007 37.0853 0.66609 38.9647 0.244192 39.8605C-0.669954 42.5347 2.01633 43.7023 3.08412 44.6701C3.20958 45.6792 3.34861 46.6885 3.55341 47.671C3.46093 49.5967 2.29565 51.915 2.35765 52.8291C2.26517 55.7031 5.30613 55.8784 6.61148 56.4588C7.03547 57.3264 7.49265 58.175 7.98135 59.0037C8.264 59.8983 8.29323 60.961 8.34083 61.919C8.41389 62.9672 8.42621 63.9327 8.56879 64.408C8.97231 66.0167 10.3006 66.3799 11.4684 66.4653C12.335 66.514 13.1358 66.419 13.728 66.4774C14.4167 67.1649 15.148 67.8112 15.8865 68.4397C17.008 70.0585 17.6123 72.584 18.1731 73.3687C19.1469 74.6584 20.45 74.6851 21.5785 74.395C22.4219 74.1413 23.1788 73.7516 23.7554 73.6077C24.628 74.039 25.5178 74.4415 26.4258 74.8045C27.1901 75.3287 27.8763 76.1038 28.4856 76.8668C29.1768 77.6785 29.791 78.3929 30.1981 78.6828C30.854 79.1582 31.5009 79.3068 32.0971 79.2582C32.7017 79.163 33.2551 78.873 33.7499 78.5294C34.458 78.0417 35.0381 77.4468 35.5318 77.1349C36.4959 77.2568 37.471 77.3203 38.4546 77.3689C40.3341 77.9954 42.3513 79.5458 43.2798 79.8358C44.8449 80.389 45.8761 79.4385 46.5878 78.5342C47.1022 77.8541 47.4604 77.1299 47.8261 76.6644C48.806 76.4598 49.764 76.1988 50.7147 75.921C52.6747 75.8817 55.0831 76.7349 56.0386 76.7009C57.6475 76.5863 58.3813 75.5062 58.7569 74.4071C59.0078 73.561 59.0909 72.7153 59.2881 72.1475C60.095 71.6648 60.8945 71.1624 61.665 70.6213C62.5399 70.2361 63.5931 70.0681 64.5974 69.9754C65.6531 69.8338 66.5915 69.7144 67.0522 69.5341C68.6027 68.9783 68.9173 67.6914 68.8684 66.4795C68.8488 65.6119 68.6684 64.7976 68.6855 64.2101C69.2949 63.4912 69.8604 62.7403 70.4188 61.975C70.7551 61.6921 71.1184 61.4216 71.5401 61.1948C71.996 60.9024 72.4857 60.6437 72.9636 60.4076C73.9191 59.9346 74.8209 59.5446 75.2088 59.2327C77.3099 57.3143 75.4622 54.9912 74.9944 53.631C75.3476 52.7264 75.6889 51.8123 75.9741 50.8764C76.9272 49.1821 79.1186 47.6611 79.5087 46.8102C80.9598 44.3459 78.3758 42.7491 77.4961 41.6206ZM40.1752 73.3297C21.8267 73.3297 6.89978 58.404 6.89978 40.0555C6.89978 21.706 21.8267 6.77883 40.1752 6.77883C58.5237 6.77883 73.4494 21.706 73.4494 40.0555C73.4494 58.404 58.5212 73.3297 40.1752 73.3297Z" fill="#F6F3E3"/>
<path d="M50.5862 28.1938C49.6818 23.611 41.8228 20.8955 39.9982 24.3325C38.176 20.8953 30.3157 23.6108 29.4113 28.1938C28.2314 32.9863 21.9777 34.305 18.5088 31.8039C18.5088 37.2205 24.3421 37.2875 27.9511 37.6372C36.5013 37.2618 39.2045 33.3213 39.998 31.521C40.7963 33.3213 43.4972 37.2618 52.0462 37.6372C55.6564 37.2875 61.4897 37.2203 61.4897 31.8039C58.0137 34.305 51.7663 32.9863 50.5862 28.1938Z" fill="#F6F3E3"/>
<path d="M39.8794 33.469C35.1467 39.9361 25.641 38.471 25.641 38.471C25.641 38.471 25.1913 47.3296 27.9824 49.6428C27.8106 59.9542 38.9678 62.2188 41.7639 62.3943C44.5623 62.5674 49.9021 59.2133 48.7758 57.1583C51.0623 54.9181 51.8107 52.1586 51.5742 49.4673C54.0166 49.1162 52.6516 38.7025 52.6516 38.7025C52.6516 38.7025 42.9241 39.0597 39.8794 33.469Z" fill="#F6F3E3"/>
<path d="M40.2701 10.6328C23.8756 10.6328 10.5352 23.973 10.5352 40.3677C10.5352 56.7658 23.8753 70.1049 40.2701 70.1049C56.6683 70.1049 70.0073 56.766 70.0073 40.3677C70.005 23.9728 56.6683 10.6328 40.2701 10.6328ZM40.2701 68.9664C24.502 68.9664 11.6737 56.1345 11.6737 40.3675C11.6737 24.6018 24.502 11.7712 40.2701 11.7712C56.0368 11.7712 68.8689 24.6018 68.8689 40.3675C68.8666 56.1345 56.037 68.9664 40.2701 68.9664Z" fill="#F6F3E3"/>
</g>
<defs>
<clipPath id="clip0_16_67">
<rect width="80" height="80" fill="white"/>
</clipPath>
</defs>
</svg>
