<svg width="80" height="80" viewBox="0 0 80 80" fill="none" xmlns="http://www.w3.org/2000/svg">
<g clip-path="url(#clip0_16_75)">
<path d="M49.5965 18.7992L48.7125 19.5806C48.7125 19.5806 44.1971 28.2733 40.8838 34.7446C41.6126 36.2072 42.2687 37.5295 42.7796 38.5763L49.5965 18.7992Z" fill="#F6F3E3"/>
<path d="M37.4406 41.594C34.6533 46.9985 28.778 49.2625 28.3522 49.4227C26.3813 49.876 24.6783 51.4863 24.0121 53.6702C23.5463 55.1828 23.634 56.7656 24.245 58.1305C24.8786 59.5404 25.9906 60.5547 27.3805 60.978C27.8288 61.1182 28.2946 61.1858 28.7655 61.1908C31.2097 61.2109 33.4712 59.4027 34.2676 56.8082C34.2676 56.7981 34.2676 56.7856 34.2726 56.7756C34.2826 56.8006 34.2851 56.8157 34.2851 56.8157L39.6846 41.1032L39.6921 41.0982L38.0742 40.2817C37.7136 41.0055 37.4832 41.4788 37.4406 41.594ZM32.6072 56.3023C32.0337 58.1705 30.4609 59.4678 28.783 59.4553C28.48 59.4553 28.1794 59.4027 27.8939 59.3176C26.9898 59.0421 26.2611 58.3684 25.8353 57.4242C25.3946 56.4375 25.3395 55.2855 25.6775 54.1761C26.2511 52.3028 27.8238 51.008 29.5017 51.018C29.8048 51.023 30.1003 51.0706 30.3908 51.1583C31.2899 51.4338 32.0237 52.1074 32.4494 53.0516C32.8877 54.0358 32.9428 55.1878 32.6072 56.3023Z" fill="#F6F3E3"/>
<path d="M52.1936 49.6532C51.5625 49.3927 46.0403 46.971 43.4633 41.6141C43.1703 40.705 32.4014 19.3877 32.4014 19.3877L31.5449 18.6589L38.432 39.6381L41.2369 41.0556L46.143 56.5978C46.168 56.7005 46.1906 56.8032 46.2156 56.9084C46.9444 59.5605 49.1858 61.4263 51.6526 61.4463C52.1009 61.4488 52.5467 61.3937 52.9799 61.271C54.3799 60.8878 55.5244 59.9086 56.1906 58.5162C56.8417 57.1663 56.9719 55.5836 56.5512 54.0584C55.9301 51.8019 54.2146 50.1215 52.1936 49.6532ZM40.0373 39.3677C39.5314 39.3652 39.1282 38.9519 39.1282 38.4461C39.1332 37.9377 39.5439 37.5345 40.0523 37.5395C40.5582 37.542 40.9664 37.9552 40.9614 38.4611C40.9564 38.9695 40.5432 39.3752 40.0373 39.3677ZM54.6303 57.7599C54.1795 58.6915 53.4307 59.3426 52.5216 59.5931C52.2411 59.6657 51.9531 59.7033 51.6651 59.7008C49.9647 59.6882 48.4119 58.3509 47.8885 56.4426C47.5805 55.3231 47.6656 54.1711 48.139 53.1994C48.5898 52.2678 49.3386 51.6166 50.2527 51.3662C50.5256 51.291 50.8187 51.251 51.1016 51.2535C52.8046 51.271 54.3548 52.6083 54.8833 54.5167C55.1888 55.6386 55.0986 56.7882 54.6303 57.7599Z" fill="#F6F3E3"/>
<path d="M77.4957 41.6166C77.5233 41.0957 77.5784 40.5823 77.5784 40.0514C77.5784 39.5806 77.5258 39.1248 77.5057 38.6565C77.6911 37.7524 78.1494 36.8283 78.5851 35.9718C79.0159 35.0176 79.4667 34.1611 79.5643 33.6777C79.9575 32.0749 79.0259 31.1108 77.9991 30.4872C77.2678 30.0339 76.4965 29.7383 76.0181 29.4053C75.7477 28.4862 75.4171 27.5871 75.0765 26.7005C74.9788 25.7414 75.0715 24.692 75.1516 23.7328C75.2793 22.676 75.4421 21.7093 75.392 21.2134C74.9312 18.401 71.966 18.689 70.5736 18.3409C70.0176 17.5645 69.4516 16.7982 68.8406 16.0669C67.9265 14.3389 67.8463 11.6367 67.3455 10.8328C66.0883 8.23572 63.3009 9.56554 61.8909 9.6557C61.1095 9.09722 60.3081 8.57631 59.4892 8.08295C58.1193 6.64042 57.0725 4.2813 56.3938 3.57506C55.2643 2.38047 53.9195 2.68851 52.8601 3.14932C52.0837 3.4849 51.4176 3.97827 50.8666 4.2262C49.9024 3.9382 48.9257 3.68275 47.9315 3.47238C46.206 2.59585 44.5255 0.659959 43.669 0.291814C42.2065 -0.376856 41.0444 0.219187 40.1929 1.00556C39.5718 1.62665 39.0985 2.32036 38.6628 2.72858C37.6735 2.76865 36.6868 2.82625 35.7176 2.94145C33.7767 2.72107 31.5102 1.34866 30.5736 1.32362C28.9583 1.12077 28.0417 2.02485 27.5183 3.1418C27.1301 3.91816 26.9022 4.72207 26.6117 5.23547C25.7101 5.59109 24.831 5.98177 23.962 6.4C22.0111 6.76064 19.4692 6.34741 18.51 6.53274C16.8871 6.82825 16.4113 8.12052 16.226 9.2575C16.0782 10.0965 16.1308 10.9405 16.0306 11.534C15.2718 12.1751 14.533 12.8363 13.8293 13.535C12.1664 14.5317 9.55181 14.8348 8.8055 15.3882C6.3462 16.8834 7.87137 19.5255 8.08925 20.9329C7.59338 21.7594 7.13258 22.6034 6.69932 23.4724C6.10578 24.1961 5.22924 24.7947 4.4604 25.3607C3.61893 25.9943 2.81752 26.5327 2.49696 26.9109C1.36999 28.128 1.79073 29.4428 2.36173 30.4646C2.79498 31.2109 3.30588 31.832 3.58136 32.3529C3.38101 33.3096 3.24327 34.2863 3.11555 35.268C2.32666 37.0837 0.668763 38.9645 0.248027 39.8561C-0.666073 42.5307 2.02113 43.6978 3.0905 44.667C3.21572 45.6737 3.35346 46.6855 3.55882 47.6672C3.46616 49.5931 2.30162 51.9071 2.36173 52.8263C2.27157 55.7013 5.30938 55.8766 6.61417 56.4526C7.03741 57.3266 7.49571 58.1731 7.98407 59.0021C8.26706 59.8936 8.29711 60.9555 8.3447 61.9172C8.41482 62.9665 8.42985 63.9332 8.57009 64.404C8.9758 66.0143 10.3006 66.375 11.4702 66.4601C12.3367 66.5127 13.1356 66.4175 13.7266 66.4726C14.4128 67.1588 15.1466 67.805 15.8854 68.4361C17.0049 70.0564 17.6084 72.5783 18.1694 73.3647C19.1436 74.6545 20.4459 74.6795 21.5728 74.389C22.4193 74.136 23.1731 73.7479 23.7492 73.6076C24.6232 74.0359 25.5097 74.4391 26.4188 74.8047C27.1827 75.3281 27.8664 76.1095 28.4774 76.8658C29.1661 77.6772 29.7822 78.391 30.1879 78.684C30.8466 79.1573 31.4927 79.3076 32.0887 79.2575C32.6923 79.1623 33.2458 78.8718 33.7391 78.5287C34.4479 78.0404 35.0289 77.4443 35.5223 77.1313C36.4864 77.254 37.4581 77.3166 38.4474 77.3692C40.3257 77.9953 42.3442 79.5455 43.2683 79.8335C44.8336 80.387 45.8654 79.4353 46.5741 78.5287C47.0875 77.85 47.4506 77.1238 47.8138 76.6605C48.7955 76.4551 49.7497 76.1921 50.7013 75.9142C52.6598 75.8741 55.069 76.7281 56.0281 76.6955C57.636 76.5828 58.3722 75.5009 58.7429 74.4015C58.9983 73.555 59.081 72.7085 59.2763 72.1451C60.0802 71.6617 60.8841 71.1583 61.653 70.6199C62.5295 70.2342 63.5814 70.0664 64.5831 69.9713C65.64 69.8285 66.5791 69.7108 67.0374 69.533C68.5851 68.9745 68.9032 67.6898 68.8556 66.4751C68.8306 65.6086 68.6552 64.7922 68.6728 64.2087C69.2838 63.4924 69.8498 62.7361 70.4008 61.9723C70.7414 61.6868 71.1045 61.4188 71.5203 61.1909C71.9786 60.8979 72.4694 60.6374 72.9478 60.4045C73.9019 59.9337 74.801 59.543 75.1892 59.23C77.2929 57.3066 75.4496 54.9875 74.9738 53.6302C75.3319 52.7236 75.67 51.8095 75.958 50.8728C76.9122 49.1774 79.106 47.6572 79.4892 46.8057C80.9643 44.3439 78.3773 42.7461 77.4957 41.6166ZM40.1754 73.3271C21.8283 73.3271 6.89967 58.401 6.89967 40.0514C6.89967 21.7043 21.8258 6.77566 40.1754 6.77566C58.525 6.77566 73.4536 21.7068 73.4536 40.0539C73.4536 58.401 58.5275 73.3271 40.1754 73.3271Z" fill="#F6F3E3"/>
<path d="M40.4006 8.57629C23.0703 8.57629 8.97559 22.6735 8.97559 40.0038C8.97559 57.3291 23.0703 71.4288 40.4006 71.4288C57.7309 71.4288 71.8281 57.3291 71.8281 40.0038C71.8281 22.6735 57.7309 8.57629 40.4006 8.57629ZM40.4006 69.4153C24.1822 69.4153 10.9866 56.2197 10.9866 40.0063C10.9866 23.7854 24.1847 10.5898 40.4006 10.5898C56.6215 10.5898 69.8146 23.7879 69.8146 40.0063C69.8146 56.2197 56.619 69.4153 40.4006 69.4153Z" fill="#F6F3E3"/>
</g>
<defs>
<clipPath id="clip0_16_75">
<rect width="80" height="80" fill="white"/>
</clipPath>
</defs>
</svg>
